<svg xmlns="http://www.w3.org/2000/svg" id="canvas" viewBox="317.178 166.625 1246.752 288.745"><path d="M 320.40,323.39 C 321.05 326.55, 322.84 331.16, 325.06 338.74 C 327.28 346.32, 328.65 351.73, 331.48 361.29 C 334.32 370.85, 336.36 377.45, 339.24 386.56 C 342.13 395.68, 343.58 400.05, 345.90 406.86 C 348.22 413.66, 349.06 416.51, 350.86 420.58 C 352.65 424.65, 353.54 426.58, 354.87 427.21 C 356.20 427.85, 357.17 427.46, 357.51 423.76 C 357.86 420.06, 357.18 417.03, 356.59 408.71 C 355.99 400.38, 355.40 394.58, 354.55 382.14 C 353.70 369.69, 353.16 361.55, 352.34 346.47 C 351.53 331.38, 351.08 322.45, 350.47 306.72 C 349.87 291.00, 349.55 282.54, 349.32 267.84 C 349.08 253.14, 349.05 245.79, 349.29 233.23 C 349.53 220.68, 349.76 214.80, 350.54 205.07 C 351.32 195.34, 351.81 190.95, 353.18 184.60 C 354.55 178.25, 355.47 175.82, 357.37 173.32 C 359.27 170.82, 359.86 170.54, 362.68 172.09 C 365.50 173.63, 367.32 175.35, 371.45 181.05 C 375.58 186.75, 378.14 191.04, 383.33 200.60 C 388.52 210.17, 391.49 216.40, 397.39 228.86 C 403.29 241.32, 406.51 248.77, 412.84 262.90 C 419.17 277.04, 422.52 284.90, 429.04 299.54 C 435.56 314.18, 439.00 321.92, 445.44 336.10 C 451.88 350.27, 455.27 357.52, 461.23 370.40 C 467.19 383.27, 470.28 389.61, 475.22 400.47 C 480.16 411.33, 482.56 416.37, 485.94 424.69 C 489.32 433.02, 490.67 436.92, 492.13 442.09 C 493.58 447.25, 493.97 449.10, 493.22 450.50 C 492.47 451.90, 491.97 451.36, 488.37 449.10 C 484.77 446.83, 481.90 444.43, 475.22 439.18 C 468.53 433.93, 464.05 429.80, 454.95 422.83 C 445.85 415.86, 440.19 411.37, 429.73 404.32 C 419.26 397.26, 413.20 393.54, 402.62 387.55 C 392.04 381.55, 386.26 378.87, 376.82 374.34 C 367.38 369.80, 362.53 368.08, 355.42 364.88 C 348.31 361.68, 345.01 360.29, 341.29 358.34 C 337.57 356.39, 336.50 356.07, 336.82 355.13 C 337.15 354.19, 338.45 354.23, 342.94 353.64 C 347.42 353.04, 351.19 352.62, 359.26 352.17 C 367.34 351.72, 372.90 351.57, 383.30 351.37 C 393.70 351.17, 400.04 351.18, 411.27 351.17 C 422.50 351.16, 428.70 351.26, 439.47 351.31 C 450.24 351.35, 455.76 351.41, 465.12 351.39 C 474.48 351.37, 478.88 351.31, 486.27 351.21 C 493.65 351.12, 496.80 351.04, 502.05 350.93 C 507.30 350.82, 509.30 350.85, 512.52 350.65 C 515.75 350.44, 517.05 350.26, 518.17 349.91 C 519.30 349.55, 519.28 349.13, 518.13 348.87 C 516.98 348.61, 515.67 348.53, 512.44 348.60 C 509.21 348.66, 507.23 348.94, 501.99 349.20 C 496.75 349.45, 493.62 349.66, 486.24 349.87 C 478.86 350.08, 474.46 350.17, 465.11 350.25 C 455.76 350.32, 450.24 350.27, 439.47 350.24 C 428.70 350.20, 422.51 350.09, 411.27 350.06 C 400.03 350.02, 393.70 349.96, 383.29 350.05 C 372.87 350.14, 367.32 350.17, 359.18 350.50 C 351.05 350.83, 347.28 350.82, 342.62 351.69 C 337.97 352.56, 336.34 353.23, 335.91 354.86 C 335.48 356.48, 336.67 357.57, 340.47 359.81 C 344.27 362.05, 347.72 362.97, 354.90 366.06 C 362.08 369.15, 366.93 370.81, 376.37 375.28 C 385.82 379.74, 391.59 382.41, 402.15 388.39 C 412.70 394.36, 418.75 398.07, 429.16 405.16 C 439.57 412.24, 445.18 416.75, 454.20 423.79 C 463.22 430.84, 467.61 435.01, 474.26 440.38 C 480.92 445.75, 483.48 448.50, 487.47 450.65 C 491.47 452.80, 493.02 452.91, 494.23 451.12 C 495.45 449.33, 494.99 447.06, 493.54 441.69 C 492.08 436.33, 490.46 432.60, 486.95 424.28 C 483.45 415.96, 481.02 410.95, 476.01 400.11 C 471.01 389.27, 467.91 382.94, 461.93 370.08 C 455.94 357.21, 452.54 349.96, 446.10 335.80 C 439.66 321.63, 436.22 313.89, 429.71 299.25 C 423.20 284.60, 419.85 276.74, 413.56 262.58 C 407.27 248.43, 404.07 240.97, 398.24 228.46 C 392.41 215.95, 389.51 209.69, 384.41 200.03 C 379.30 190.36, 376.91 186.04, 372.73 180.13 C 368.55 174.22, 366.83 172.05, 363.50 170.48 C 360.16 168.91, 358.38 169.50, 356.05 172.27 C 353.73 175.04, 353.18 177.78, 351.88 184.33 C 350.57 190.87, 350.22 195.21, 349.53 204.99 C 348.85 214.77, 348.65 220.65, 348.45 233.22 C 348.25 245.79, 348.30 253.14, 348.55 267.85 C 348.80 282.56, 349.11 291.02, 349.70 306.75 C 350.28 322.48, 350.73 331.42, 351.47 346.51 C 352.22 361.60, 352.71 369.75, 353.42 382.21 C 354.14 394.66, 354.63 400.50, 355.05 408.80 C 355.46 417.10, 355.41 420.15, 355.48 423.68 C 355.56 427.22, 356.00 427.23, 355.42 426.46 C 354.84 425.69, 354.20 423.87, 352.57 419.86 C 350.94 415.84, 349.69 413.11, 347.28 406.37 C 344.87 399.63, 343.42 395.25, 340.52 386.16 C 337.61 377.07, 335.58 370.47, 332.75 360.92 C 329.91 351.36, 328.53 345.96, 326.34 338.37 C 324.15 330.78, 323.00 325.97, 321.81 322.97 C 320.62 319.98, 319.75 320.24, 320.40 323.39" style="stroke: black; fill: black;"/><path d="M 582.78,401.83 C 582.82 402.59, 583.44 403.48, 584.19 404.00 C 584.94 404.52, 585.85 404.64, 586.53 404.44 C 587.21 404.24, 587.59 403.69, 587.58 402.99 C 587.56 402.28, 587.17 401.48, 586.45 400.92 C 585.73 400.37, 584.72 400.03, 583.99 400.21 C 583.25 400.39, 582.74 401.08, 582.78 401.83" style="stroke: black; fill: black;"/><path d="M 753.07,208.62 C 753.18 210.47, 753.87 212.22, 755.06 217.54 C 756.25 222.86, 757.14 226.54, 759.01 235.22 C 760.89 243.91, 762.16 249.81, 764.45 260.97 C 766.73 272.12, 767.99 278.91, 770.44 290.99 C 772.90 303.07, 774.20 309.75, 776.73 321.36 C 779.26 332.96, 780.55 338.84, 783.09 349.00 C 785.63 359.16, 786.86 364.28, 789.45 372.15 C 792.03 380.03, 793.19 383.73, 796.02 388.38 C 798.84 393.03, 800.37 395.00, 803.57 395.41 C 806.76 395.82, 808.38 394.72, 811.97 390.42 C 815.56 386.12, 817.13 382.50, 821.50 373.92 C 825.87 365.33, 828.46 359.23, 833.83 347.50 C 839.20 335.77, 842.40 328.17, 848.35 315.27 C 854.30 302.37, 857.65 295.11, 863.58 283.00 C 869.51 270.90, 872.73 264.78, 878.00 254.74 C 883.27 244.70, 885.86 240.18, 889.92 232.82 C 893.99 225.45, 895.76 222.49, 898.32 217.91 C 900.88 213.33, 901.66 212.20, 902.74 209.91 C 903.82 207.61, 903.65 207.20, 903.72 206.45 C 903.79 205.70, 903.61 205.64, 903.09 206.16 C 902.58 206.69, 902.37 206.89, 901.14 209.08 C 899.91 211.28, 899.38 212.52, 896.94 217.16 C 894.49 221.79, 892.87 224.84, 888.92 232.27 C 884.96 239.70, 882.39 244.24, 877.17 254.31 C 871.94 264.38, 868.73 270.51, 862.80 282.62 C 856.87 294.74, 853.51 302.00, 847.53 314.89 C 841.54 327.78, 838.30 335.37, 832.86 347.06 C 827.42 358.74, 824.74 364.84, 820.31 373.30 C 815.88 381.77, 814.02 385.31, 810.72 389.39 C 807.41 393.47, 806.47 394.06, 803.79 393.70 C 801.11 393.33, 799.97 391.97, 797.34 387.58 C 794.70 383.19, 793.27 379.53, 790.62 371.76 C 787.97 363.99, 786.68 358.87, 784.10 348.75 C 781.51 338.63, 780.21 332.74, 777.68 321.15 C 775.14 309.56, 773.85 302.87, 771.44 290.79 C 769.02 278.71, 767.81 271.91, 765.61 260.73 C 763.41 249.56, 762.21 243.64, 760.44 234.92 C 758.67 226.21, 757.95 222.49, 756.76 217.16 C 755.57 211.83, 755.23 209.99, 754.49 208.28 C 753.75 206.57, 752.95 206.77, 753.07 208.62" style="stroke: black; fill: black;"/><path d="M 826.47,313.74 C 827.05 315.30, 827.97 316.93, 830.64 320.72 C 833.31 324.52, 835.20 327.30, 839.83 332.73 C 844.46 338.16, 847.68 341.73, 853.80 347.87 C 859.92 354.01, 863.70 357.50, 870.42 363.43 C 877.14 369.35, 880.82 372.38, 887.41 377.50 C 894.00 382.62, 897.38 385.05, 903.38 389.04 C 909.39 393.02, 912.23 394.80, 917.44 397.41 C 922.65 400.03, 925.05 401.07, 929.43 402.09 C 933.82 403.12, 935.85 403.39, 939.37 402.55 C 942.89 401.70, 944.46 400.71, 947.02 397.86 C 949.57 395.01, 950.53 392.80, 952.15 388.29 C 953.76 383.77, 954.23 380.76, 955.10 375.29 C 955.97 369.81, 956.07 366.36, 956.49 360.92 C 956.91 355.47, 957.07 352.27, 957.20 348.04 C 957.34 343.82, 957.27 341.60, 957.17 339.79 C 957.06 337.99, 956.25 337.97, 956.68 339.01 C 957.11 340.04, 957.60 341.73, 959.33 344.98 C 961.05 348.23, 962.42 350.78, 965.30 355.26 C 968.18 359.73, 970.07 362.75, 973.73 367.34 C 977.40 371.92, 979.58 374.47, 983.62 378.18 C 987.65 381.88, 989.82 383.52, 993.92 385.85 C 998.02 388.17, 1000.13 389.07, 1004.12 389.80 C 1008.12 390.54, 1010.24 390.56, 1013.90 389.53 C 1017.57 388.50, 1019.39 387.36, 1022.46 384.66 C 1025.53 381.96, 1026.86 379.85, 1029.24 376.02 C 1031.61 372.19, 1032.67 369.18, 1034.35 365.52 C 1036.02 361.87, 1036.57 359.55, 1037.61 357.73 C 1038.66 355.91, 1038.40 355.68, 1039.57 356.40 C 1040.74 357.13, 1041.38 358.55, 1043.46 361.35 C 1045.55 364.15, 1047.02 366.65, 1050.00 370.40 C 1052.98 374.16, 1054.93 376.77, 1058.37 380.11 C 1061.82 383.46, 1063.75 385.06, 1067.23 387.13 C 1070.70 389.20, 1072.43 389.99, 1075.72 390.46 C 1079.01 390.94, 1080.76 390.81, 1083.68 389.52 C 1086.60 388.23, 1087.96 386.93, 1090.33 384.00 C 1092.69 381.08, 1093.61 378.84, 1095.51 374.90 C 1097.40 370.96, 1098.23 368.02, 1099.80 364.29 C 1101.37 360.57, 1102.08 358.43, 1103.36 356.29 C 1104.65 354.15, 1104.72 353.51, 1106.22 353.59 C 1107.73 353.67, 1108.49 354.66, 1110.90 356.68 C 1113.30 358.70, 1115.01 360.64, 1118.24 363.69 C 1121.48 366.74, 1123.51 368.94, 1127.08 371.95 C 1130.65 374.95, 1132.63 376.58, 1136.08 378.71 C 1139.53 380.84, 1141.31 381.90, 1144.35 382.60 C 1147.38 383.31, 1149.86 382.61, 1151.26 382.25 C 1152.65 381.89, 1152.55 381.28, 1151.32 380.80 C 1150.09 380.32, 1147.86 380.76, 1145.11 379.87 C 1142.35 378.97, 1140.79 378.34, 1137.55 376.33 C 1134.31 374.32, 1132.34 372.78, 1128.90 369.81 C 1125.46 366.84, 1123.56 364.62, 1120.35 361.49 C 1117.13 358.37, 1115.66 356.20, 1112.84 354.17 C 1110.02 352.14, 1108.65 351.27, 1106.24 351.33 C 1103.82 351.39, 1102.63 352.12, 1100.76 354.47 C 1098.90 356.82, 1098.51 359.26, 1096.92 363.09 C 1095.33 366.92, 1094.60 369.81, 1092.81 373.62 C 1091.03 377.42, 1090.05 379.49, 1087.98 382.12 C 1085.90 384.75, 1084.80 385.65, 1082.43 386.75 C 1080.06 387.85, 1078.89 388.00, 1076.13 387.61 C 1073.36 387.22, 1071.78 386.70, 1068.60 384.82 C 1065.43 382.93, 1063.52 381.43, 1060.28 378.18 C 1057.03 374.93, 1055.24 372.32, 1052.37 368.56 C 1049.50 364.80, 1048.33 362.19, 1045.93 359.38 C 1043.53 356.57, 1042.48 355.17, 1040.37 354.51 C 1038.27 353.85, 1037.17 354.13, 1035.40 356.07 C 1033.63 358.02, 1033.23 360.52, 1031.52 364.23 C 1029.82 367.93, 1029.04 370.90, 1026.87 374.59 C 1024.70 378.28, 1023.42 380.19, 1020.68 382.67 C 1017.95 385.16, 1016.41 386.08, 1013.18 387.02 C 1009.96 387.97, 1008.18 388.03, 1004.55 387.41 C 1000.91 386.79, 998.91 386.07, 995.01 383.91 C 991.11 381.75, 988.95 380.20, 985.06 376.61 C 981.16 373.02, 979.00 370.51, 975.52 365.94 C 972.04 361.38, 970.34 358.31, 967.65 353.80 C 964.96 349.29, 964.04 346.57, 962.06 343.40 C 960.08 340.22, 959.15 338.71, 957.75 337.93 C 956.35 337.14, 955.70 337.49, 955.05 339.49 C 954.40 341.49, 954.67 343.69, 954.49 347.95 C 954.32 352.20, 954.53 355.36, 954.19 360.75 C 953.85 366.15, 953.68 369.58, 952.81 374.92 C 951.94 380.26, 951.37 383.20, 949.84 387.46 C 948.30 391.71, 947.32 393.63, 945.12 396.18 C 942.91 398.74, 941.84 399.45, 938.79 400.23 C 935.75 401.01, 934.00 400.95, 929.88 400.08 C 925.76 399.22, 923.33 398.34, 918.19 395.88 C 913.05 393.43, 910.18 391.71, 904.18 387.82 C 898.19 383.93, 894.81 381.52, 888.23 376.43 C 881.66 371.35, 877.99 368.34, 871.32 362.41 C 864.66 356.48, 860.92 352.96, 854.90 346.79 C 848.88 340.62, 845.74 337.01, 841.23 331.55 C 836.73 326.09, 835.06 323.23, 832.36 319.50 C 829.66 315.77, 828.92 314.07, 827.74 312.92 C 826.57 311.77, 825.89 312.18, 826.47 313.74" style="stroke: black; fill: black;"/><path d="M 1167.38,360.38 C 1168.68 359.52, 1170.13 356.97, 1172.32 354.95 C 1174.51 352.93, 1175.74 351.35, 1178.32 350.29 C 1180.89 349.22, 1182.36 348.69, 1185.19 349.62 C 1188.03 350.55, 1189.58 352.16, 1192.49 354.94 C 1195.40 357.73, 1196.89 360.21, 1199.76 363.56 C 1202.62 366.91, 1204.01 368.87, 1206.81 371.69 C 1209.60 374.52, 1210.91 375.89, 1213.72 377.69 C 1216.54 379.48, 1217.97 380.18, 1220.88 380.68 C 1223.78 381.18, 1225.32 381.06, 1228.26 380.18 C 1231.19 379.30, 1232.67 378.31, 1235.56 376.30 C 1238.45 374.30, 1239.90 372.77, 1242.70 370.16 C 1245.50 367.56, 1246.85 365.73, 1249.55 363.26 C 1252.25 360.79, 1253.49 359.44, 1256.21 357.82 C 1258.93 356.21, 1260.13 355.64, 1263.17 355.20 C 1266.21 354.76, 1267.64 354.90, 1271.41 355.62 C 1275.17 356.34, 1277.28 357.26, 1282.01 358.80 C 1286.75 360.35, 1289.53 361.56, 1295.07 363.34 C 1300.60 365.13, 1303.73 366.25, 1309.69 367.73 C 1315.65 369.21, 1318.95 369.98, 1324.85 370.73 C 1330.75 371.48, 1333.83 371.68, 1339.18 371.51 C 1344.53 371.33, 1347.22 371.03, 1351.60 369.87 C 1355.99 368.71, 1358.11 367.88, 1361.10 365.70 C 1364.09 363.53, 1365.39 362.03, 1366.55 359.01 C 1367.71 355.99, 1367.82 353.90, 1366.91 350.59 C 1366.01 347.28, 1364.88 345.28, 1362.03 342.46 C 1359.17 339.64, 1357.07 338.10, 1352.64 336.51 C 1348.21 334.91, 1345.29 334.35, 1339.87 334.47 C 1334.45 334.59, 1331.02 335.28, 1325.54 337.11 C 1320.05 338.93, 1316.90 340.47, 1312.45 343.58 C 1308.00 346.69, 1305.72 348.87, 1303.30 352.67 C 1300.87 356.47, 1300.08 358.84, 1300.31 362.57 C 1300.54 366.30, 1301.67 368.35, 1304.46 371.30 C 1307.25 374.25, 1309.66 375.55, 1314.27 377.32 C 1318.88 379.08, 1321.96 379.66, 1327.52 380.14 C 1333.08 380.62, 1336.42 380.48, 1342.06 379.71 C 1347.70 378.94, 1350.74 378.08, 1355.71 376.28 C 1360.67 374.48, 1363.09 373.07, 1366.89 370.70 C 1370.70 368.32, 1372.23 366.50, 1374.75 364.40 C 1377.27 362.30, 1377.76 360.95, 1379.49 360.19 C 1381.21 359.42, 1381.39 359.62, 1383.38 360.58 C 1385.36 361.54, 1386.43 362.64, 1389.40 365.00 C 1392.37 367.35, 1394.32 369.27, 1398.23 372.36 C 1402.15 375.45, 1404.65 377.51, 1408.99 380.45 C 1413.33 383.39, 1415.81 384.92, 1419.94 387.07 C 1424.07 389.23, 1426.13 390.24, 1429.63 391.23 C 1433.12 392.21, 1434.82 392.54, 1437.42 392.00 C 1440.02 391.45, 1441.20 390.64, 1442.64 388.48 C 1444.07 386.33, 1444.35 384.62, 1444.59 381.21 C 1444.83 377.80, 1444.34 375.53, 1443.83 371.44 C 1443.33 367.34, 1442.70 364.83, 1442.07 360.72 C 1441.44 356.62, 1440.83 354.41, 1440.68 350.91 C 1440.54 347.41, 1440.35 345.90, 1441.33 343.21 C 1442.30 340.52, 1442.86 339.50, 1445.56 337.45 C 1448.26 335.40, 1450.15 334.49, 1454.84 332.96 C 1459.53 331.43, 1462.70 330.74, 1469.03 329.79 C 1475.36 328.84, 1479.31 328.54, 1486.50 328.21 C 1493.70 327.88, 1497.85 327.95, 1505.00 328.13 C 1512.14 328.31, 1515.85 328.55, 1522.22 329.11 C 1528.59 329.66, 1531.62 330.10, 1536.83 330.89 C 1542.05 331.68, 1544.60 332.34, 1548.29 333.06 C 1551.99 333.79, 1553.16 334.18, 1555.31 334.52 C 1557.45 334.86, 1557.96 334.74, 1559.02 334.75 C 1560.08 334.76, 1560.28 334.76, 1560.63 334.58 C 1560.98 334.41, 1561.02 334.17, 1560.77 333.87 C 1560.52 333.58, 1560.35 333.50, 1559.36 333.09 C 1558.37 332.69, 1557.96 332.34, 1555.83 331.85 C 1553.70 331.35, 1552.47 331.19, 1548.72 330.61 C 1544.98 330.03, 1542.37 329.59, 1537.10 328.95 C 1531.82 328.31, 1528.77 327.90, 1522.36 327.41 C 1515.95 326.92, 1512.22 326.67, 1505.04 326.49 C 1497.85 326.30, 1493.69 326.21, 1486.43 326.48 C 1479.17 326.76, 1475.21 326.99, 1468.76 327.85 C 1462.30 328.70, 1459.11 329.27, 1454.15 330.77 C 1449.20 332.27, 1447.08 333.06, 1443.98 335.34 C 1440.88 337.63, 1439.91 339.06, 1438.67 342.19 C 1437.42 345.33, 1437.67 347.21, 1437.76 351.00 C 1437.85 354.80, 1438.53 356.99, 1439.11 361.15 C 1439.68 365.31, 1440.23 367.82, 1440.64 371.80 C 1441.05 375.78, 1441.23 377.99, 1441.15 381.04 C 1441.07 384.09, 1441.10 385.40, 1440.25 387.06 C 1439.41 388.72, 1438.90 389.06, 1436.93 389.35 C 1434.96 389.64, 1433.56 389.43, 1430.39 388.53 C 1427.21 387.64, 1425.07 386.89, 1421.07 384.87 C 1417.07 382.85, 1414.60 381.35, 1410.37 378.43 C 1406.15 375.51, 1403.75 373.43, 1399.94 370.26 C 1396.12 367.09, 1394.40 365.07, 1391.31 362.60 C 1388.23 360.12, 1387.07 358.84, 1384.51 357.88 C 1381.96 356.93, 1380.86 356.96, 1378.54 357.83 C 1376.22 358.69, 1375.51 360.03, 1372.92 362.21 C 1370.33 364.38, 1369.19 366.28, 1365.60 368.69 C 1362.01 371.10, 1359.73 372.48, 1354.96 374.27 C 1350.20 376.06, 1347.22 376.89, 1341.78 377.62 C 1336.33 378.35, 1333.05 378.43, 1327.72 377.92 C 1322.39 377.41, 1319.43 376.75, 1315.13 375.08 C 1310.84 373.42, 1308.72 372.12, 1306.24 369.59 C 1303.76 367.06, 1302.93 365.55, 1302.73 362.42 C 1302.53 359.28, 1303.03 357.32, 1305.23 353.91 C 1307.42 350.49, 1309.50 348.30, 1313.69 345.35 C 1317.89 342.39, 1320.96 340.85, 1326.21 339.13 C 1331.45 337.40, 1334.79 336.78, 1339.90 336.73 C 1345.01 336.68, 1347.73 337.34, 1351.75 338.89 C 1355.76 340.45, 1357.53 342.00, 1359.98 344.50 C 1362.42 347.01, 1363.20 348.72, 1363.96 351.41 C 1364.72 354.11, 1364.68 355.54, 1363.79 357.98 C 1362.90 360.41, 1362.09 361.65, 1359.53 363.59 C 1356.97 365.52, 1355.08 366.49, 1350.99 367.67 C 1346.91 368.84, 1344.28 369.24, 1339.10 369.47 C 1333.92 369.70, 1330.88 369.55, 1325.09 368.82 C 1319.31 368.09, 1316.04 367.34, 1310.17 365.84 C 1304.30 364.34, 1301.21 363.19, 1295.74 361.33 C 1290.26 359.47, 1287.54 358.20, 1282.78 356.54 C 1278.02 354.87, 1275.94 353.83, 1271.94 352.99 C 1267.94 352.14, 1266.23 351.87, 1262.78 352.31 C 1259.33 352.74, 1257.75 353.45, 1254.68 355.18 C 1251.62 356.90, 1250.29 358.42, 1247.46 360.94 C 1244.62 363.47, 1243.28 365.28, 1240.51 367.79 C 1237.75 370.31, 1236.30 371.71, 1233.65 373.53 C 1230.99 375.35, 1229.69 376.09, 1227.23 376.89 C 1224.78 377.69, 1223.76 377.90, 1221.38 377.55 C 1219.01 377.19, 1217.87 376.68, 1215.35 375.11 C 1212.84 373.53, 1211.52 372.35, 1208.83 369.67 C 1206.14 367.00, 1204.77 365.09, 1201.89 361.74 C 1199.01 358.38, 1197.60 355.89, 1194.45 352.89 C 1191.30 349.89, 1189.61 347.88, 1186.14 346.74 C 1182.68 345.60, 1180.39 346.04, 1177.14 347.19 C 1173.88 348.34, 1172.12 350.08, 1169.87 352.49 C 1167.61 354.91, 1166.36 357.69, 1165.86 359.26 C 1165.37 360.84, 1166.09 361.24, 1167.38 360.38" style="stroke: black; fill: black;"/></svg>