<svg xmlns="http://www.w3.org/2000/svg" id="canvas" viewBox="307.083 240.697 828.287 145.886"><path d="M 395.49,255.86 C 394.53 256.65, 393.95 257.85, 392.02 260.60 C 390.08 263.35, 389.01 265.17, 385.81 269.62 C 382.62 274.07, 380.45 277.05, 376.04 282.84 C 371.62 288.63, 368.88 292.05, 363.74 298.57 C 358.61 305.09, 355.72 308.74, 350.36 315.46 C 345.00 322.18, 341.91 325.79, 336.94 332.16 C 331.98 338.53, 329.49 341.63, 325.52 347.30 C 321.54 352.98, 319.74 355.85, 317.06 360.53 C 314.38 365.21, 313.50 367.17, 312.11 370.70 C 310.71 374.23, 310.18 375.78, 310.09 378.18 C 310.00 380.57, 310.77 381.62, 311.67 382.68 C 312.57 383.75, 313.56 383.63, 314.59 383.50 C 315.61 383.38, 316.51 382.63, 316.78 382.06 C 317.06 381.50, 316.48 380.77, 315.96 380.67 C 315.45 380.56, 314.75 381.36, 314.20 381.55 C 313.65 381.73, 313.50 382.24, 313.21 381.60 C 312.92 380.97, 312.54 380.38, 312.76 378.37 C 312.99 376.35, 313.17 374.92, 314.35 371.53 C 315.53 368.14, 316.17 366.08, 318.66 361.41 C 321.15 356.74, 322.90 353.86, 326.78 348.18 C 330.66 342.50, 333.12 339.38, 338.05 333.01 C 342.98 326.64, 346.07 323.02, 351.44 316.32 C 356.82 309.62, 359.72 305.98, 364.92 299.51 C 370.13 293.04, 372.92 289.67, 377.47 283.96 C 382.02 278.26, 384.29 275.35, 387.66 270.99 C 391.03 266.63, 392.49 265.01, 394.32 262.14 C 396.15 259.26, 396.57 257.87, 396.80 256.62 C 397.03 255.36, 396.45 255.06, 395.49 255.86" style="stroke: black; fill: black;"/><path d="M 399.01,257.05 C 398.65 258.10, 398.76 259.43, 398.80 262.08 C 398.84 264.73, 399.12 266.24, 399.20 270.28 C 399.28 274.32, 399.49 277.10, 399.18 282.26 C 398.87 287.42, 398.42 290.35, 397.63 296.08 C 396.84 301.82, 396.27 305.14, 395.22 310.93 C 394.17 316.73, 393.54 319.61, 392.39 325.05 C 391.24 330.48, 390.49 333.24, 389.48 338.12 C 388.46 343.01, 388.04 345.47, 387.33 349.46 C 386.62 353.46, 386.15 355.14, 385.91 358.12 C 385.67 361.10, 385.89 362.36, 386.13 364.34 C 386.36 366.33, 386.67 367.32, 387.09 368.04 C 387.52 368.76, 387.95 368.70, 388.26 367.95 C 388.57 367.20, 388.51 366.21, 388.67 364.29 C 388.82 362.38, 388.82 361.26, 389.05 358.37 C 389.28 355.48, 389.31 353.81, 389.82 349.85 C 390.33 345.88, 390.69 343.42, 391.60 338.54 C 392.50 333.66, 393.23 330.90, 394.34 325.45 C 395.46 320.00, 396.08 317.10, 397.16 311.29 C 398.24 305.48, 398.84 302.16, 399.74 296.39 C 400.64 290.62, 401.17 287.68, 401.67 282.46 C 402.17 277.24, 402.15 274.41, 402.26 270.29 C 402.37 266.17, 402.53 264.54, 402.20 261.84 C 401.87 259.15, 401.24 257.79, 400.60 256.83 C 399.96 255.87, 399.37 255.99, 399.01 257.05" style="stroke: black; fill: black;"/><path d="M 333.26,332.83 C 334.12 332.66, 334.70 332.05, 336.52 330.91 C 338.34 329.77, 339.10 328.73, 342.36 327.11 C 345.62 325.49, 347.94 324.36, 352.81 322.80 C 357.67 321.23, 360.82 320.48, 366.70 319.28 C 372.57 318.07, 376.06 317.49, 382.18 316.75 C 388.30 316.00, 391.91 315.79, 397.30 315.55 C 402.69 315.30, 405.31 315.54, 409.13 315.52 C 412.94 315.50, 414.91 315.71, 416.38 315.45 C 417.84 315.19, 417.89 314.63, 416.44 314.21 C 415.00 313.79, 413.01 313.50, 409.16 313.34 C 405.31 313.19, 402.64 313.15, 397.19 313.44 C 391.75 313.73, 388.12 314.03, 381.94 314.79 C 375.76 315.54, 372.26 316.09, 366.29 317.19 C 360.32 318.30, 357.15 318.94, 352.07 320.33 C 347.00 321.71, 344.44 322.52, 340.93 324.11 C 337.43 325.71, 336.30 326.77, 334.56 328.30 C 332.82 329.83, 332.48 330.84, 332.22 331.74 C 331.96 332.65, 332.40 333.00, 333.26 332.83" style="stroke: black; fill: black;"/><path d="M 465.70,366.51 C 466.07 366.04, 466.24 365.54, 466.07 365.30 C 465.90 365.06, 465.41 365.04, 464.85 365.32 C 464.29 365.59, 463.64 366.18, 463.27 366.68 C 462.91 367.18, 462.83 367.62, 463.02 367.82 C 463.20 368.01, 463.68 367.92, 464.21 367.66 C 464.75 367.40, 465.32 366.98, 465.70 366.51" style="stroke: black; fill: black;"/><path d="M 649.51,244.41 C 648.74 245.51, 648.29 247.11, 647.18 250.33 C 646.08 253.55, 645.77 255.66, 643.98 260.51 C 642.18 265.36, 640.88 268.51, 638.19 274.56 C 635.50 280.61, 633.87 284.09, 630.53 290.77 C 627.20 297.45, 625.10 301.11, 621.52 307.97 C 617.95 314.83, 615.87 318.58, 612.64 325.07 C 609.41 331.56, 607.91 334.89, 605.38 340.43 C 602.84 345.98, 601.80 348.57, 599.97 352.79 C 598.14 357.01, 596.83 358.86, 596.24 361.53 C 595.64 364.20, 596.46 365.15, 596.98 366.15 C 597.50 367.16, 598.43 366.58, 598.82 366.56 C 599.21 366.54, 599.07 366.20, 598.95 366.04 C 598.82 365.89, 598.19 366.56, 598.20 365.80 C 598.20 365.05, 598.24 364.70, 598.99 362.26 C 599.75 359.82, 600.37 357.83, 601.97 353.60 C 603.56 349.38, 604.55 346.71, 606.96 341.14 C 609.38 335.57, 610.86 332.25, 614.05 325.76 C 617.23 319.27, 619.29 315.53, 622.88 308.68 C 626.47 301.83, 628.59 298.17, 632.00 291.51 C 635.42 284.85, 637.12 281.40, 639.97 275.37 C 642.81 269.35, 644.23 266.22, 646.21 261.38 C 648.19 256.54, 648.90 254.48, 649.86 251.18 C 650.83 247.87, 651.10 246.20, 651.03 244.85 C 650.96 243.49, 650.28 243.32, 649.51 244.41" style="stroke: black; fill: black;"/><path d="M 722.29,245.54 C 721.23 245.70, 720.47 246.17, 717.80 247.55 C 715.13 248.93, 713.36 250.00, 708.96 252.45 C 704.57 254.90, 701.81 256.51, 695.81 259.80 C 689.81 263.08, 686.13 265.07, 678.98 268.89 C 671.83 272.71, 667.54 274.82, 660.07 278.88 C 652.60 282.94, 648.53 285.13, 641.62 289.19 C 634.70 293.26, 631.07 295.42, 625.51 299.20 C 619.95 302.98, 617.42 304.80, 613.82 308.11 C 610.23 311.43, 608.76 312.86, 607.55 315.77 C 606.35 318.69, 606.43 320.30, 607.80 322.69 C 609.17 325.08, 610.87 326.09, 614.39 327.72 C 617.91 329.36, 620.38 329.79, 625.39 330.86 C 630.40 331.93, 633.50 332.27, 639.44 333.08 C 645.37 333.89, 648.89 334.22, 655.04 334.91 C 661.20 335.59, 664.49 335.88, 670.23 336.51 C 675.97 337.13, 679.02 337.31, 683.74 338.03 C 688.46 338.76, 690.67 339.62, 693.84 340.15 C 697.01 340.68, 697.95 340.62, 699.58 340.69 C 701.20 340.75, 701.46 340.66, 701.97 340.47 C 702.47 340.28, 702.50 340.09, 702.09 339.75 C 701.68 339.41, 701.46 339.25, 699.91 338.76 C 698.36 338.27, 697.51 337.91, 694.34 337.32 C 691.17 336.73, 688.82 336.36, 684.04 335.81 C 679.26 335.25, 676.19 335.11, 670.44 334.54 C 664.68 333.98, 661.40 333.69, 655.27 332.97 C 649.13 332.26, 645.61 331.88, 639.74 330.97 C 633.88 330.06, 630.78 329.58, 625.94 328.41 C 621.10 327.25, 618.77 326.54, 615.55 325.14 C 612.33 323.74, 611.00 323.11, 609.84 321.43 C 608.69 319.74, 608.71 319.11, 609.78 316.73 C 610.84 314.35, 611.84 312.77, 615.17 309.53 C 618.50 306.29, 620.98 304.33, 626.42 300.51 C 631.86 296.69, 635.48 294.50, 642.35 290.43 C 649.21 286.35, 653.28 284.16, 660.75 280.13 C 668.22 276.10, 672.52 274.01, 679.71 270.28 C 686.90 266.55, 690.63 264.62, 696.71 261.50 C 702.80 258.38, 705.61 256.92, 710.13 254.67 C 714.66 252.42, 716.73 251.84, 719.32 250.25 C 721.92 248.67, 722.50 247.69, 723.09 246.74 C 723.69 245.80, 723.35 245.38, 722.29 245.54" style="stroke: black; fill: black;"/><path d="M 743.80,301.36 C 742.99 301.65, 742.28 302.10, 740.96 303.67 C 739.64 305.25, 738.76 306.39, 737.19 309.23 C 735.62 312.07, 734.64 314.28, 733.10 317.89 C 731.56 321.49, 730.69 323.60, 729.49 327.27 C 728.28 330.93, 727.56 332.93, 727.08 336.21 C 726.60 339.49, 726.43 340.97, 727.09 343.66 C 727.75 346.36, 728.47 347.80, 730.37 349.69 C 732.26 351.59, 733.61 352.39, 736.57 353.12 C 739.52 353.85, 741.43 353.76, 745.14 353.34 C 748.84 352.92, 750.90 352.42, 755.08 351.02 C 759.27 349.63, 761.62 348.63, 766.08 346.36 C 770.53 344.09, 773.01 342.61, 777.37 339.66 C 781.72 336.72, 783.90 334.95, 787.86 331.65 C 791.82 328.35, 793.79 326.55, 797.16 323.17 C 800.53 319.79, 802.33 317.82, 804.71 314.75 C 807.08 311.68, 808.21 309.82, 809.04 307.82 C 809.87 305.82, 809.56 304.99, 808.86 304.75 C 808.15 304.52, 807.14 304.90, 805.50 306.63 C 803.86 308.36, 802.74 310.09, 800.64 313.41 C 798.55 316.74, 797.06 319.27, 795.02 323.27 C 792.97 327.26, 791.88 329.56, 790.40 333.37 C 788.92 337.18, 788.24 339.11, 787.62 342.31 C 786.99 345.51, 787.14 347.15, 787.27 349.39 C 787.41 351.63, 787.81 352.33, 788.29 353.52 C 788.78 354.72, 789.24 355.06, 789.69 355.35 C 790.15 355.64, 790.42 355.44, 790.55 354.99 C 790.68 354.53, 790.38 354.20, 790.36 353.07 C 790.34 351.95, 790.36 351.39, 790.45 349.35 C 790.54 347.32, 790.27 345.90, 790.81 342.91 C 791.35 339.93, 791.75 338.06, 793.15 334.43 C 794.55 330.80, 795.68 328.57, 797.82 324.77 C 799.95 320.97, 801.72 318.67, 803.81 315.43 C 805.90 312.20, 807.24 310.67, 808.28 308.59 C 809.32 306.51, 809.31 305.47, 809.00 305.04 C 808.68 304.61, 808.02 304.83, 806.70 306.42 C 805.39 308.02, 804.66 309.99, 802.41 313.01 C 800.16 316.03, 798.66 318.13, 795.47 321.52 C 792.27 324.91, 790.31 326.69, 786.44 329.95 C 782.56 333.20, 780.40 334.94, 776.11 337.78 C 771.82 340.62, 769.36 342.05, 764.99 344.17 C 760.62 346.28, 758.28 347.17, 754.25 348.36 C 750.22 349.54, 748.20 349.85, 744.84 350.09 C 741.47 350.33, 739.86 350.08, 737.40 349.55 C 734.94 349.02, 733.97 348.76, 732.53 347.44 C 731.10 346.12, 730.64 345.11, 730.20 342.96 C 729.77 340.82, 729.88 339.65, 730.35 336.72 C 730.83 333.79, 731.39 331.78, 732.58 328.31 C 733.78 324.84, 734.69 322.77, 736.34 319.36 C 737.99 315.94, 739.34 313.99, 740.84 311.22 C 742.34 308.45, 742.99 307.31, 743.83 305.51 C 744.66 303.71, 745.02 303.07, 745.01 302.24 C 745.01 301.41, 744.62 301.07, 743.80 301.36" style="stroke: black; fill: black;"/><path d="M 848.36,310.47 C 847.62 310.86, 847.13 311.39, 845.98 313.04 C 844.84 314.70, 844.17 315.95, 842.65 318.74 C 841.12 321.53, 840.14 323.50, 838.35 326.98 C 836.56 330.45, 835.49 332.74, 833.68 336.10 C 831.87 339.46, 830.68 341.12, 829.31 343.76 C 827.94 346.41, 827.25 347.69, 826.84 349.31 C 826.42 350.94, 826.62 351.66, 827.26 351.90 C 827.89 352.14, 828.63 352.03, 830.00 350.50 C 831.38 348.96, 832.14 347.46, 834.13 344.23 C 836.12 341.01, 837.15 338.45, 839.94 334.37 C 842.74 330.29, 844.59 327.81, 848.10 323.82 C 851.60 319.84, 853.84 317.76, 857.45 314.46 C 861.07 311.16, 863.00 309.57, 866.18 307.32 C 869.37 305.07, 871.10 304.40, 873.38 303.21 C 875.66 302.01, 876.46 301.57, 877.57 301.35 C 878.69 301.14, 878.86 301.26, 878.96 302.13 C 879.06 302.99, 878.71 303.67, 878.09 305.70 C 877.47 307.73, 876.88 309.28, 875.88 312.26 C 874.87 315.24, 874.31 317.29, 873.08 320.62 C 871.84 323.94, 870.87 325.82, 869.71 328.88 C 868.55 331.95, 867.68 333.52, 867.28 335.93 C 866.88 338.35, 866.93 339.79, 867.72 340.95 C 868.50 342.12, 869.45 342.30, 871.22 341.77 C 872.98 341.23, 874.14 340.56, 876.55 338.28 C 878.97 335.99, 880.16 333.82, 883.29 330.34 C 886.42 326.86, 888.22 324.63, 892.20 320.89 C 896.18 317.15, 898.81 314.93, 903.19 311.63 C 907.58 308.32, 910.00 306.74, 914.13 304.36 C 918.25 301.97, 920.47 300.92, 923.79 299.71 C 927.12 298.50, 928.65 298.38, 930.76 298.29 C 932.87 298.20, 933.43 298.36, 934.35 299.27 C 935.28 300.18, 935.29 300.90, 935.38 302.84 C 935.47 304.78, 935.31 306.13, 934.78 308.99 C 934.26 311.85, 933.94 313.67, 932.76 317.13 C 931.58 320.60, 930.56 322.69, 928.87 326.32 C 927.19 329.95, 926.02 331.93, 924.34 335.29 C 922.66 338.64, 921.48 340.31, 920.45 343.11 C 919.43 345.92, 919.27 347.21, 919.22 349.29 C 919.17 351.36, 919.64 352.30, 920.19 353.49 C 920.74 354.68, 921.45 355.01, 921.99 355.24 C 922.52 355.48, 922.81 355.14, 922.87 354.66 C 922.94 354.17, 922.43 353.85, 922.30 352.84 C 922.18 351.82, 921.94 351.26, 922.24 349.57 C 922.53 347.87, 922.79 346.94, 923.78 344.36 C 924.77 341.78, 925.59 340.01, 927.17 336.66 C 928.74 333.32, 929.91 331.31, 931.66 327.63 C 933.42 323.96, 934.54 321.89, 935.94 318.29 C 937.33 314.70, 938.09 312.85, 938.64 309.67 C 939.18 306.49, 939.21 304.81, 938.68 302.37 C 938.14 299.94, 937.55 298.88, 935.96 297.50 C 934.38 296.13, 933.37 295.54, 930.74 295.48 C 928.12 295.43, 926.41 295.83, 922.85 297.21 C 919.29 298.59, 917.15 299.85, 912.96 302.38 C 908.76 304.91, 906.35 306.52, 901.87 309.87 C 897.40 313.22, 894.73 315.44, 890.59 319.13 C 886.44 322.81, 884.49 325.01, 881.15 328.29 C 877.81 331.58, 876.13 333.30, 873.90 335.56 C 871.67 337.81, 870.94 338.60, 870.00 339.57 C 869.05 340.54, 869.03 340.95, 869.17 340.41 C 869.31 339.86, 869.91 338.89, 870.71 336.86 C 871.51 334.82, 872.02 333.20, 873.18 330.22 C 874.35 327.24, 875.20 325.28, 876.54 321.96 C 877.88 318.64, 878.80 316.74, 879.88 313.63 C 880.96 310.52, 881.73 308.89, 881.95 306.41 C 882.17 303.94, 881.85 302.72, 880.97 301.27 C 880.10 299.82, 879.35 299.34, 877.55 299.15 C 875.75 298.96, 874.55 299.12, 871.96 300.34 C 869.38 301.55, 867.84 302.72, 864.62 305.20 C 861.40 307.69, 859.53 309.33, 855.87 312.74 C 852.21 316.15, 849.96 318.24, 846.32 322.24 C 842.68 326.23, 840.72 328.71, 837.67 332.72 C 834.61 336.72, 833.13 339.06, 831.03 342.26 C 828.94 345.47, 827.98 346.85, 827.20 348.73 C 826.42 350.62, 826.75 351.32, 827.14 351.68 C 827.54 352.05, 828.08 351.77, 829.17 350.54 C 830.26 349.32, 831.11 348.14, 832.59 345.56 C 834.08 342.98, 834.84 341.04, 836.61 337.66 C 838.39 334.28, 839.54 332.06, 841.47 328.67 C 843.40 325.28, 844.77 323.53, 846.28 320.71 C 847.80 317.90, 848.37 316.52, 849.05 314.61 C 849.72 312.69, 849.82 311.96, 849.68 311.13 C 849.54 310.30, 849.10 310.09, 848.36 310.47" style="stroke: black; fill: black;"/><path d="M 1016.17,307.89 C 1015.94 307.14, 1015.24 306.46, 1014.09 305.67 C 1012.94 304.87, 1012.29 304.43, 1010.43 303.92 C 1008.58 303.40, 1007.41 302.92, 1004.81 303.09 C 1002.21 303.26, 1000.72 303.61, 997.44 304.76 C 994.15 305.91, 992.32 306.80, 988.37 308.84 C 984.43 310.87, 981.88 312.13, 977.73 314.96 C 973.58 317.78, 971.22 319.61, 967.63 322.95 C 964.05 326.29, 962.29 328.33, 959.80 331.65 C 957.31 334.98, 956.14 336.63, 955.20 339.57 C 954.25 342.52, 954.32 344.04, 955.07 346.39 C 955.83 348.74, 956.70 349.97, 958.98 351.32 C 961.26 352.66, 963.01 353.10, 966.47 353.13 C 969.92 353.16, 972.05 352.64, 976.25 351.47 C 980.45 350.30, 982.88 349.34, 987.46 347.27 C 992.04 345.20, 994.56 343.85, 999.16 341.12 C 1003.75 338.38, 1006.25 336.70, 1010.43 333.60 C 1014.61 330.50, 1016.80 328.60, 1020.05 325.61 C 1023.30 322.61, 1024.81 321.04, 1026.67 318.64 C 1028.52 316.25, 1029.20 314.84, 1029.32 313.63 C 1029.44 312.41, 1028.78 311.92, 1027.29 312.55 C 1025.80 313.19, 1024.24 314.18, 1021.87 316.80 C 1019.50 319.42, 1017.98 321.79, 1015.42 325.66 C 1012.87 329.54, 1011.27 332.17, 1009.10 336.17 C 1006.92 340.17, 1005.80 342.35, 1004.54 345.68 C 1003.29 349.00, 1002.92 351.28, 1002.84 352.79 C 1002.77 354.30, 1003.35 354.45, 1004.18 353.24 C 1005.02 352.03, 1005.54 349.86, 1007.02 346.73 C 1008.51 343.60, 1009.39 341.42, 1011.62 337.59 C 1013.85 333.76, 1015.55 331.23, 1018.18 327.57 C 1020.82 323.90, 1022.68 321.95, 1024.79 319.26 C 1026.89 316.58, 1028.02 315.42, 1028.69 314.14 C 1029.36 312.87, 1029.04 312.42, 1028.13 312.90 C 1027.22 313.38, 1026.11 314.36, 1024.14 316.53 C 1022.17 318.71, 1021.30 320.73, 1018.29 323.78 C 1015.27 326.83, 1013.12 328.71, 1009.07 331.79 C 1005.01 334.86, 1002.52 336.53, 998.00 339.17 C 993.48 341.81, 990.96 343.10, 986.46 344.99 C 981.97 346.88, 979.52 347.69, 975.52 348.63 C 971.53 349.56, 969.51 349.67, 966.49 349.66 C 963.47 349.65, 962.20 349.40, 960.42 348.60 C 958.64 347.79, 958.04 347.23, 957.59 345.62 C 957.13 344.01, 957.26 343.04, 958.14 340.56 C 959.01 338.08, 959.72 336.39, 961.96 333.23 C 964.20 330.07, 965.90 328.00, 969.34 324.77 C 972.77 321.55, 975.09 319.76, 979.16 317.10 C 983.22 314.43, 985.78 313.24, 989.66 311.46 C 993.53 309.69, 995.45 309.07, 998.52 308.22 C 1001.60 307.37, 1002.84 307.31, 1005.04 307.21 C 1007.23 307.11, 1007.98 307.42, 1009.48 307.74 C 1010.98 308.06, 1011.39 308.47, 1012.55 308.81 C 1013.71 309.14, 1014.55 309.60, 1015.28 309.42 C 1016.00 309.23, 1016.41 308.64, 1016.17 307.89" style="stroke: black; fill: black;"/><path d="M 1070.14,313.98 C 1069.30 314.38, 1068.51 315.04, 1067.21 316.81 C 1065.91 318.57, 1065.34 320.01, 1063.64 322.81 C 1061.95 325.60, 1060.70 327.49, 1058.73 330.79 C 1056.77 334.08, 1055.74 336.23, 1053.83 339.28 C 1051.91 342.33, 1050.52 343.76, 1049.15 346.05 C 1047.77 348.33, 1047.29 349.50, 1046.95 350.72 C 1046.62 351.94, 1046.81 352.46, 1047.47 352.14 C 1048.12 351.82, 1048.90 351.23, 1050.22 349.11 C 1051.54 346.99, 1052.22 345.02, 1054.06 341.53 C 1055.91 338.03, 1056.91 335.63, 1059.44 331.64 C 1061.98 327.65, 1063.53 325.30, 1066.75 321.59 C 1069.97 317.89, 1071.95 316.08, 1075.55 313.10 C 1079.15 310.11, 1081.00 308.80, 1084.75 306.67 C 1088.50 304.53, 1090.42 303.68, 1094.29 302.42 C 1098.15 301.17, 1100.15 300.90, 1104.06 300.38 C 1107.98 299.85, 1110.19 299.73, 1113.85 299.80 C 1117.51 299.86, 1119.50 300.45, 1122.35 300.69 C 1125.20 300.93, 1126.21 300.91, 1128.08 301.00 C 1129.95 301.10, 1130.91 301.35, 1131.69 301.15 C 1132.47 300.95, 1132.60 300.56, 1131.97 300.02 C 1131.34 299.48, 1130.40 299.00, 1128.54 298.43 C 1126.69 297.86, 1125.64 297.48, 1122.70 297.16 C 1119.75 296.83, 1117.63 296.68, 1113.83 296.80 C 1110.03 296.91, 1107.74 297.08, 1103.67 297.74 C 1099.61 298.39, 1097.52 298.69, 1093.50 300.06 C 1089.48 301.44, 1087.45 302.36, 1083.57 304.60 C 1079.68 306.85, 1077.79 308.22, 1074.06 311.30 C 1070.34 314.38, 1068.32 316.24, 1064.94 319.99 C 1061.55 323.75, 1059.94 326.14, 1057.14 330.09 C 1054.34 334.04, 1053.05 336.29, 1050.93 339.74 C 1048.82 343.18, 1047.48 344.88, 1046.57 347.31 C 1045.65 349.75, 1045.92 350.98, 1046.34 351.93 C 1046.75 352.87, 1047.42 352.78, 1048.63 352.04 C 1049.84 351.29, 1050.75 350.40, 1052.38 348.21 C 1054.00 346.02, 1054.88 344.19, 1056.75 341.08 C 1058.63 337.97, 1059.69 335.89, 1061.75 332.65 C 1063.82 329.41, 1065.37 327.70, 1067.07 324.88 C 1068.77 322.06, 1069.38 320.57, 1070.25 318.55 C 1071.13 316.54, 1071.46 315.71, 1071.44 314.79 C 1071.42 313.88, 1070.99 313.58, 1070.14 313.98" style="stroke: black; fill: black;"/></svg>