<svg xmlns="http://www.w3.org/2000/svg" id="canvas" viewBox="317.292 198.055 1131.168 198.404"><path d="M 321.58,331.23 C 322.88 330.95, 324.56 330.24, 327.25 328.46 C 329.95 326.68, 331.23 325.45, 335.05 322.34 C 338.87 319.23, 341.46 317.22, 346.36 312.90 C 351.25 308.58, 354.15 306.02, 359.52 300.73 C 364.89 295.45, 367.65 292.46, 373.22 286.49 C 378.79 280.52, 381.81 277.33, 387.36 270.87 C 392.90 264.41, 395.83 260.89, 400.97 254.17 C 406.11 247.45, 408.59 243.83, 413.05 237.26 C 417.52 230.69, 419.73 227.06, 423.29 221.31 C 426.85 215.57, 428.60 212.32, 430.86 208.53 C 433.12 204.74, 433.71 203.09, 434.60 202.37 C 435.49 201.65, 434.97 202.17, 435.30 204.92 C 435.63 207.67, 436.05 210.15, 436.25 216.12 C 436.44 222.09, 436.32 226.32, 436.28 234.79 C 436.25 243.26, 436.07 248.56, 436.09 258.48 C 436.11 268.41, 436.17 273.97, 436.38 284.41 C 436.58 294.86, 436.74 300.48, 437.12 310.70 C 437.49 320.92, 437.78 326.21, 438.24 335.51 C 438.70 344.81, 438.93 349.48, 439.40 357.20 C 439.87 364.92, 440.11 368.36, 440.58 374.11 C 441.05 379.86, 441.36 382.25, 441.76 385.93 C 442.16 389.61, 442.20 391.20, 442.58 392.50 C 442.97 393.80, 443.46 393.78, 443.67 392.43 C 443.89 391.08, 443.94 389.45, 443.65 385.76 C 443.37 382.06, 442.82 379.69, 442.23 373.96 C 441.65 368.23, 441.30 364.81, 440.74 357.11 C 440.18 349.41, 439.92 344.74, 439.42 335.45 C 438.92 326.16, 438.61 320.87, 438.23 310.66 C 437.85 300.45, 437.69 294.83, 437.52 284.39 C 437.35 273.96, 437.29 268.40, 437.37 258.49 C 437.45 248.57, 437.72 243.29, 437.92 234.81 C 438.11 226.33, 438.39 222.16, 438.34 216.08 C 438.30 210.00, 438.54 207.39, 437.68 204.42 C 436.82 201.45, 435.74 200.64, 434.03 201.24 C 432.31 201.85, 431.52 203.60, 429.09 207.44 C 426.67 211.29, 425.34 214.66, 421.89 220.47 C 418.45 226.27, 416.29 229.90, 411.89 236.47 C 407.49 243.05, 405.02 246.66, 399.91 253.36 C 394.79 260.06, 391.88 263.56, 386.33 269.99 C 380.78 276.42, 377.76 279.59, 372.17 285.51 C 366.58 291.42, 363.80 294.38, 358.38 299.56 C 352.96 304.73, 350.03 307.23, 345.06 311.39 C 340.08 315.56, 337.41 317.45, 333.52 320.38 C 329.62 323.31, 328.12 324.15, 325.56 326.04 C 323.00 327.94, 321.51 328.81, 320.71 329.85 C 319.92 330.88, 320.27 331.51, 321.58 331.23" style="stroke: black; fill: black;"/><path d="M 355.45,336.55 C 356.27 337.13, 356.72 337.68, 359.80 338.13 C 362.88 338.58, 365.15 338.43, 370.84 338.82 C 376.54 339.21, 380.42 339.67, 388.27 340.08 C 396.12 340.48, 401.16 340.63, 410.09 340.86 C 419.03 341.08, 424.11 341.17, 432.97 341.20 C 441.82 341.23, 446.82 341.10, 454.38 341.01 C 461.93 340.93, 467.48 341.09, 470.75 340.78 C 474.02 340.46, 474.01 339.64, 470.73 339.43 C 467.45 339.21, 461.91 339.61, 454.36 339.69 C 446.81 339.78, 441.82 339.89, 432.97 339.84 C 424.13 339.78, 419.05 339.72, 410.14 339.42 C 401.22 339.11, 396.20 338.90, 388.38 338.32 C 380.56 337.74, 376.70 337.14, 371.05 336.53 C 365.40 335.91, 363.21 335.49, 360.13 335.24 C 357.06 334.98, 356.61 335.00, 355.67 335.26 C 354.74 335.53, 354.62 335.98, 355.45 336.55" style="stroke: black; fill: black;"/><path d="M 518.04,382.08 C 518.21 382.76, 519.50 383.96, 520.19 384.07 C 520.89 384.18, 521.68 383.32, 521.51 382.64 C 521.35 381.96, 520.06 380.76, 519.37 380.65 C 518.67 380.54, 517.88 381.40, 518.04 382.08" style="stroke: black; fill: black;"/><path d="M 720.23,225.60 C 719.54 228.75, 719.21 233.24, 718.19 241.54 C 717.16 249.84, 716.41 255.66, 715.11 267.10 C 713.81 278.53, 713.00 286.34, 711.70 298.74 C 710.41 311.13, 709.70 317.88, 708.62 329.07 C 707.54 340.26, 706.98 345.59, 706.29 354.70 C 705.60 363.81, 705.45 368.33, 705.18 374.63 C 704.92 380.93, 704.87 382.86, 704.97 386.21 C 705.06 389.56, 705.36 390.36, 705.66 391.39 C 705.97 392.41, 706.28 392.39, 706.49 391.35 C 706.70 390.31, 706.68 389.52, 706.71 386.19 C 706.75 382.86, 706.51 380.96, 706.65 374.68 C 706.79 368.40, 706.83 363.88, 707.43 354.78 C 708.02 345.68, 708.57 340.35, 709.64 329.17 C 710.70 317.98, 711.43 311.24, 712.75 298.85 C 714.07 286.46, 714.90 278.66, 716.23 267.22 C 717.56 255.79, 718.31 249.98, 719.39 241.70 C 720.47 233.41, 721.47 229.00, 721.63 225.78 C 721.80 222.56, 720.92 222.44, 720.23 225.60" style="stroke: black; fill: black;"/><path d="M 828.95,228.54 C 827.70 229.76, 827.06 231.36, 823.86 235.49 C 820.67 239.62, 818.63 242.34, 812.99 249.19 C 807.35 256.05, 803.31 260.95, 795.65 269.77 C 787.99 278.59, 783.11 283.96, 774.69 293.31 C 766.27 302.66, 761.16 307.85, 753.56 316.51 C 745.95 325.17, 741.97 329.53, 736.68 336.61 C 731.38 343.69, 729.02 346.71, 727.10 351.89 C 725.17 357.06, 725.29 358.97, 727.05 362.48 C 728.80 366.00, 730.93 367.37, 735.88 369.45 C 740.82 371.53, 744.51 372.28, 751.77 372.89 C 759.03 373.51, 763.68 373.41, 772.17 372.51 C 780.67 371.60, 785.49 370.56, 794.24 368.37 C 803.00 366.18, 807.75 364.56, 815.94 361.54 C 824.13 358.53, 828.31 356.75, 835.21 353.30 C 842.11 349.86, 845.28 347.86, 850.43 344.31 C 855.57 340.77, 857.59 338.83, 860.93 335.59 C 864.28 332.34, 866.02 330.39, 867.17 328.07 C 868.32 325.76, 867.67 324.08, 866.68 324.01 C 865.70 323.93, 863.97 324.80, 862.25 327.69 C 860.53 330.59, 859.59 333.52, 858.08 338.48 C 856.57 343.45, 855.50 347.04, 854.70 352.51 C 853.90 357.99, 853.58 361.22, 854.07 365.86 C 854.56 370.50, 855.11 372.64, 857.15 375.71 C 859.20 378.78, 860.83 380.03, 864.29 381.22 C 867.74 382.40, 869.94 382.35, 874.43 381.64 C 878.92 380.93, 881.52 380.10, 886.74 377.67 C 891.96 375.25, 895.05 373.34, 900.55 369.52 C 906.04 365.69, 909.26 362.60, 914.22 358.54 C 919.19 354.48, 921.86 351.78, 925.38 349.23 C 928.90 346.67, 930.04 345.82, 931.81 345.76 C 933.58 345.70, 933.50 346.67, 934.22 348.91 C 934.95 351.16, 934.76 353.46, 935.42 356.96 C 936.09 360.46, 936.15 363.08, 937.53 366.41 C 938.90 369.74, 939.91 371.63, 942.30 373.62 C 944.69 375.60, 946.29 376.05, 949.46 376.32 C 952.64 376.60, 954.45 376.30, 958.16 374.99 C 961.88 373.68, 963.99 372.59, 968.04 369.78 C 972.10 366.96, 974.30 364.74, 978.43 360.93 C 982.56 357.11, 984.76 354.66, 988.69 350.70 C 992.61 346.73, 994.72 344.30, 998.05 341.10 C 1001.39 337.90, 1003.11 336.26, 1005.35 334.68 C 1007.58 333.11, 1008.14 332.75, 1009.24 333.23 C 1010.33 333.71, 1010.34 334.80, 1010.82 337.08 C 1011.30 339.35, 1011.39 341.13, 1011.63 344.59 C 1011.86 348.05, 1011.78 350.52, 1012.00 354.38 C 1012.22 358.23, 1012.02 360.59, 1012.73 363.86 C 1013.43 367.14, 1013.91 368.83, 1015.52 370.75 C 1017.12 372.67, 1018.26 373.42, 1020.76 373.45 C 1023.27 373.47, 1024.87 372.82, 1028.05 370.88 C 1031.22 368.94, 1032.89 367.19, 1036.63 363.74 C 1040.38 360.28, 1042.64 357.70, 1046.78 353.60 C 1050.91 349.50, 1053.44 346.74, 1057.30 343.25 C 1061.16 339.75, 1063.23 337.90, 1066.08 336.12 C 1068.93 334.33, 1069.87 334.05, 1071.54 334.33 C 1073.21 334.60, 1073.57 335.44, 1074.41 337.48 C 1075.25 339.52, 1075.22 341.39, 1075.72 344.53 C 1076.23 347.66, 1076.09 350.02, 1076.93 353.15 C 1077.77 356.29, 1078.30 357.99, 1079.92 360.21 C 1081.55 362.43, 1082.55 363.53, 1085.05 364.25 C 1087.55 364.98, 1089.02 364.82, 1092.43 363.85 C 1095.85 362.87, 1097.89 361.70, 1102.12 359.39 C 1106.34 357.09, 1109.00 355.35, 1113.56 352.32 C 1118.12 349.28, 1120.76 346.86, 1124.93 344.22 C 1129.09 341.58, 1131.27 340.29, 1134.37 339.12 C 1137.48 337.96, 1138.69 337.89, 1140.44 338.40 C 1142.18 338.91, 1142.25 339.56, 1143.11 341.68 C 1143.96 343.79, 1144.08 345.91, 1144.72 348.98 C 1145.36 352.04, 1145.57 354.29, 1146.30 357.01 C 1147.04 359.72, 1147.54 360.81, 1148.39 362.57 C 1149.23 364.32, 1149.87 365.23, 1150.52 365.79 C 1151.17 366.34, 1151.52 366.16, 1151.64 365.35 C 1151.77 364.55, 1151.35 363.63, 1151.15 361.77 C 1150.94 359.90, 1151.13 358.78, 1150.62 356.03 C 1150.12 353.27, 1149.55 351.15, 1148.60 347.99 C 1147.66 344.83, 1147.39 342.59, 1145.89 340.22 C 1144.39 337.84, 1143.59 336.84, 1141.11 336.11 C 1138.62 335.39, 1136.96 335.37, 1133.46 336.58 C 1129.96 337.79, 1127.86 339.42, 1123.61 342.16 C 1119.35 344.89, 1116.76 347.29, 1112.20 350.26 C 1107.65 353.22, 1104.97 354.86, 1100.84 356.97 C 1096.70 359.08, 1094.54 359.88, 1091.54 360.79 C 1088.53 361.70, 1087.58 362.01, 1085.82 361.53 C 1084.06 361.05, 1083.74 360.26, 1082.73 358.40 C 1081.73 356.53, 1081.45 355.12, 1080.81 352.20 C 1080.17 349.28, 1080.26 347.02, 1079.52 343.78 C 1078.77 340.55, 1078.61 338.37, 1077.09 336.04 C 1075.57 333.71, 1074.38 332.56, 1071.91 332.14 C 1069.44 331.71, 1067.98 332.02, 1064.74 333.90 C 1061.50 335.77, 1059.63 337.90, 1055.71 341.51 C 1051.80 345.12, 1049.32 347.89, 1045.15 351.94 C 1040.98 355.99, 1038.62 358.51, 1034.87 361.77 C 1031.12 365.03, 1029.23 366.42, 1026.39 368.23 C 1023.55 370.03, 1022.40 370.59, 1020.67 370.77 C 1018.93 370.95, 1018.63 370.64, 1017.74 369.13 C 1016.85 367.62, 1016.66 366.21, 1016.21 363.22 C 1015.76 360.23, 1015.68 357.97, 1015.50 354.19 C 1015.31 350.41, 1015.58 347.93, 1015.27 344.31 C 1014.96 340.69, 1014.99 338.67, 1013.93 336.09 C 1012.87 333.51, 1011.98 332.17, 1009.96 331.41 C 1007.94 330.65, 1006.54 330.70, 1003.82 332.30 C 1001.10 333.89, 999.70 336.01, 996.36 339.38 C 993.02 342.75, 991.02 345.18, 987.13 349.16 C 983.24 353.14, 981.01 355.56, 976.91 359.26 C 972.81 362.96, 970.55 365.07, 966.62 367.67 C 962.68 370.26, 960.61 371.15, 957.23 372.24 C 953.86 373.34, 952.29 373.38, 949.74 373.15 C 947.19 372.93, 946.23 372.73, 944.46 371.12 C 942.70 369.50, 942.03 368.05, 940.92 365.07 C 939.80 362.09, 939.70 359.68, 938.87 356.22 C 938.04 352.76, 938.16 350.26, 936.75 347.77 C 935.34 345.29, 934.35 343.88, 931.81 343.80 C 929.28 343.73, 927.86 344.77, 924.08 347.41 C 920.31 350.05, 917.89 352.90, 912.96 357.00 C 908.03 361.11, 904.86 364.18, 899.44 367.92 C 894.02 371.66, 890.93 373.46, 885.85 375.73 C 880.78 377.99, 878.21 378.62, 874.06 379.23 C 869.91 379.84, 868.07 379.77, 865.11 378.79 C 862.14 377.81, 860.96 376.97, 859.23 374.34 C 857.50 371.70, 856.87 369.90, 856.46 365.62 C 856.06 361.33, 856.34 358.16, 857.22 352.91 C 858.09 347.66, 859.28 344.12, 860.85 339.36 C 862.41 334.60, 863.84 332.06, 865.05 329.10 C 866.27 326.14, 866.91 325.04, 866.91 324.57 C 866.91 324.10, 866.56 324.85, 865.07 326.76 C 863.57 328.66, 862.55 330.85, 859.44 334.10 C 856.32 337.35, 854.47 339.40, 849.50 342.99 C 844.52 346.58, 841.38 348.59, 834.58 352.05 C 827.78 355.51, 823.62 357.31, 815.48 360.31 C 807.35 363.32, 802.61 364.93, 793.92 367.08 C 785.23 369.22, 780.42 370.21, 772.02 371.03 C 763.62 371.86, 759.01 371.83, 751.92 371.18 C 744.83 370.53, 741.25 369.66, 736.57 367.77 C 731.90 365.87, 730.18 364.79, 728.55 361.71 C 726.92 358.63, 726.62 357.26, 728.43 352.38 C 730.24 347.50, 732.43 344.35, 737.61 337.30 C 742.79 330.26, 746.76 325.84, 754.32 317.18 C 761.89 308.52, 767.00 303.32, 775.45 293.99 C 783.89 284.67, 788.80 279.32, 796.54 270.54 C 804.27 261.77, 808.37 256.92, 814.11 250.13 C 819.85 243.34, 822.06 240.72, 825.26 236.57 C 828.47 232.42, 829.40 230.98, 830.14 229.38 C 830.87 227.77, 830.20 227.32, 828.95 228.54" style="stroke: black; fill: black;"/><path d="M 1227.95,329.28 C 1226.71 328.88, 1225.20 328.04, 1221.80 328.75 C 1218.39 329.47, 1215.75 330.26, 1210.94 332.85 C 1206.13 335.44, 1202.79 337.48, 1197.75 341.70 C 1192.71 345.92, 1189.78 349.14, 1185.74 353.95 C 1181.71 358.76, 1179.53 361.71, 1177.56 365.76 C 1175.59 369.80, 1175.20 371.73, 1175.90 374.16 C 1176.59 376.59, 1178.11 377.66, 1181.02 377.91 C 1183.94 378.16, 1186.15 377.43, 1190.49 375.43 C 1194.84 373.43, 1197.65 371.66, 1202.75 367.91 C 1207.85 364.15, 1210.91 361.28, 1215.99 356.67 C 1221.07 352.06, 1223.97 348.76, 1228.16 344.85 C 1232.36 340.94, 1234.49 338.92, 1236.96 337.14 C 1239.42 335.36, 1239.68 335.00, 1240.50 335.95 C 1241.31 336.90, 1240.86 338.58, 1241.04 341.89 C 1241.22 345.20, 1240.98 348.12, 1241.38 352.50 C 1241.78 356.88, 1241.88 359.69, 1243.04 363.78 C 1244.19 367.87, 1244.84 370.00, 1247.18 372.95 C 1249.51 375.89, 1251.20 377.12, 1254.71 378.49 C 1258.22 379.87, 1260.43 380.23, 1264.71 379.82 C 1269.00 379.40, 1271.29 378.55, 1276.11 376.43 C 1280.94 374.30, 1283.67 372.52, 1288.83 369.18 C 1294.00 365.83, 1296.89 363.79, 1301.94 359.68 C 1306.99 355.57, 1309.70 352.61, 1314.08 348.63 C 1318.45 344.65, 1320.50 342.49, 1323.82 339.79 C 1327.14 337.08, 1328.79 336.21, 1330.68 335.12 C 1332.58 334.03, 1332.90 333.64, 1333.29 334.34 C 1333.68 335.05, 1332.91 336.19, 1332.65 338.64 C 1332.39 341.10, 1332.14 343.25, 1331.98 346.63 C 1331.83 350.01, 1331.40 352.46, 1331.86 355.55 C 1332.32 358.65, 1332.72 360.31, 1334.29 362.09 C 1335.85 363.86, 1336.99 364.50, 1339.68 364.42 C 1342.38 364.35, 1343.97 363.61, 1347.77 361.70 C 1351.57 359.78, 1353.59 357.92, 1358.68 354.84 C 1363.77 351.77, 1366.95 349.72, 1373.22 346.33 C 1379.49 342.94, 1383.22 340.92, 1390.02 337.88 C 1396.82 334.83, 1400.64 333.12, 1407.21 331.11 C 1413.79 329.09, 1417.44 328.58, 1422.90 327.80 C 1428.37 327.01, 1430.86 327.21, 1434.55 327.17 C 1438.25 327.14, 1439.33 327.47, 1441.38 327.63 C 1443.43 327.79, 1444.08 328.08, 1444.82 327.97 C 1445.55 327.86, 1445.69 327.57, 1445.06 327.08 C 1444.44 326.60, 1443.80 325.99, 1441.69 325.53 C 1439.58 325.07, 1438.33 324.71, 1434.52 324.79 C 1430.70 324.87, 1428.17 324.99, 1422.61 325.94 C 1417.05 326.89, 1413.38 327.44, 1406.72 329.53 C 1400.07 331.61, 1396.22 333.34, 1389.35 336.38 C 1382.48 339.42, 1378.73 341.42, 1372.37 344.73 C 1366.01 348.03, 1362.72 350.03, 1357.56 352.91 C 1352.39 355.80, 1350.14 357.44, 1346.52 359.17 C 1342.91 360.90, 1341.50 361.28, 1339.47 361.56 C 1337.44 361.83, 1337.06 361.81, 1336.38 360.54 C 1335.70 359.28, 1336.08 357.97, 1336.07 355.21 C 1336.05 352.46, 1336.26 350.09, 1336.31 346.76 C 1336.37 343.43, 1336.72 341.27, 1336.35 338.56 C 1335.97 335.86, 1335.80 334.38, 1334.45 333.24 C 1333.11 332.11, 1332.05 331.93, 1329.63 332.87 C 1327.20 333.82, 1325.70 335.12, 1322.32 337.98 C 1318.94 340.84, 1317.05 343.13, 1312.73 347.18 C 1308.42 351.22, 1305.74 354.14, 1300.74 358.21 C 1295.75 362.27, 1292.85 364.26, 1287.75 367.49 C 1282.64 370.71, 1279.87 372.39, 1275.22 374.35 C 1270.57 376.31, 1268.39 376.96, 1264.49 377.28 C 1260.58 377.61, 1258.73 377.18, 1255.71 375.97 C 1252.68 374.76, 1251.32 373.84, 1249.35 371.25 C 1247.39 368.66, 1246.83 366.83, 1245.87 363.02 C 1244.91 359.22, 1244.93 356.51, 1244.57 352.22 C 1244.20 347.92, 1244.65 345.04, 1244.05 341.54 C 1243.44 338.05, 1243.24 336.03, 1241.56 334.75 C 1239.89 333.47, 1238.64 333.43, 1235.67 335.14 C 1232.71 336.86, 1230.93 339.31, 1226.73 343.33 C 1222.53 347.34, 1219.72 350.65, 1214.67 355.22 C 1209.62 359.78, 1206.52 362.56, 1201.48 366.14 C 1196.43 369.72, 1193.51 371.27, 1189.43 373.11 C 1185.36 374.96, 1183.42 375.26, 1181.09 375.37 C 1178.76 375.49, 1178.09 375.42, 1177.80 373.70 C 1177.50 371.99, 1177.70 370.47, 1179.61 366.78 C 1181.51 363.10, 1183.43 359.97, 1187.33 355.28 C 1191.23 350.59, 1194.16 347.40, 1199.11 343.34 C 1204.06 339.29, 1207.41 337.39, 1212.08 335.03 C 1216.75 332.66, 1219.27 332.35, 1222.45 331.50 C 1225.63 330.65, 1226.88 331.21, 1227.98 330.77 C 1229.08 330.32, 1229.19 329.68, 1227.95 329.28" style="stroke: black; fill: black;"/></svg>