<svg xmlns="http://www.w3.org/2000/svg" id="canvas" viewBox="231.023 227.822 1136.335 189.126"><path d="M 235.22,344.42 C 236.20 343.69, 236.98 342.65, 239.05 340.03 C 241.12 337.41, 242.34 335.61, 245.57 331.31 C 248.80 327.01, 250.89 324.05, 255.22 318.55 C 259.54 313.05, 262.24 310.00, 267.19 303.81 C 272.14 297.61, 274.91 294.12, 279.98 287.59 C 285.05 281.07, 287.66 277.56, 292.55 271.16 C 297.43 264.76, 300.05 261.32, 304.41 255.60 C 308.77 249.88, 311.01 246.84, 314.33 242.56 C 317.66 238.28, 319.21 236.34, 321.04 234.21 C 322.86 232.07, 323.18 231.31, 323.46 231.87 C 323.73 232.42, 323.43 233.37, 322.41 237.00 C 321.38 240.62, 320.59 243.59, 318.33 249.98 C 316.06 256.37, 314.52 260.55, 311.07 268.93 C 307.63 277.32, 305.39 282.29, 301.10 291.91 C 296.82 301.54, 294.18 306.96, 289.65 317.08 C 285.11 327.19, 282.70 332.67, 278.42 342.51 C 274.14 352.35, 271.98 357.46, 268.24 366.27 C 264.50 375.07, 262.51 379.64, 259.72 386.52 C 256.93 393.39, 255.81 396.33, 254.28 400.64 C 252.75 404.96, 252.23 406.52, 252.07 408.10 C 251.91 409.68, 252.47 409.77, 253.49 408.54 C 254.51 407.31, 255.51 405.80, 257.17 401.94 C 258.83 398.09, 259.80 394.92, 261.81 389.27 C 263.82 383.62, 264.97 380.13, 267.23 373.69 C 269.49 367.25, 270.80 363.63, 273.10 357.08 C 275.41 350.53, 276.71 346.99, 278.76 340.95 C 280.80 334.90, 281.73 331.65, 283.33 326.87 C 284.93 322.10, 285.85 319.93, 286.75 317.07 C 287.66 314.20, 287.77 313.14, 287.85 312.56 C 287.94 311.98, 287.39 312.33, 287.18 314.16 C 286.96 315.99, 286.75 317.91, 286.78 321.71 C 286.81 325.51, 286.88 328.34, 287.31 333.16 C 287.74 337.98, 288.03 340.82, 288.92 345.80 C 289.82 350.78, 290.32 353.47, 291.78 358.06 C 293.24 362.65, 294.13 364.99, 296.23 368.75 C 298.32 372.50, 299.47 374.31, 302.26 376.83 C 305.05 379.35, 306.80 380.33, 310.17 381.35 C 313.54 382.36, 315.49 382.51, 319.12 381.90 C 322.76 381.29, 324.65 380.47, 328.35 378.30 C 332.05 376.13, 333.97 374.63, 337.64 371.06 C 341.30 367.48, 343.26 365.20, 346.68 360.43 C 350.10 355.66, 351.70 352.75, 354.73 347.21 C 357.76 341.67, 359.20 338.42, 361.83 332.72 C 364.46 327.03, 365.73 324.05, 367.87 318.72 C 370.02 313.40, 370.90 310.68, 372.57 306.11 C 374.23 301.55, 375.09 299.43, 376.21 295.89 C 377.32 292.35, 377.91 290.43, 378.13 288.43 C 378.35 286.42, 378.02 285.54, 377.29 285.88 C 376.56 286.23, 375.72 287.24, 374.47 290.15 C 373.23 293.06, 372.64 295.45, 371.07 300.43 C 369.49 305.42, 368.45 308.94, 366.60 315.07 C 364.74 321.21, 363.63 324.80, 361.81 331.11 C 359.98 337.43, 359.04 340.61, 357.48 346.64 C 355.93 352.67, 355.20 355.85, 354.01 361.27 C 352.82 366.70, 352.27 369.42, 351.54 373.75 C 350.81 378.08, 350.32 380.09, 350.37 382.94 C 350.43 385.79, 350.83 386.91, 351.80 387.99 C 352.77 389.06, 353.56 389.23, 355.22 388.32 C 356.89 387.41, 357.91 386.18, 360.13 383.43 C 362.36 380.67, 363.48 378.46, 366.35 374.53 C 369.21 370.60, 371.03 368.04, 374.48 363.78 C 377.93 359.52, 380.09 357.00, 383.59 353.23 C 387.09 349.47, 388.99 347.59, 392.00 344.94 C 395.00 342.29, 396.59 341.36, 398.60 339.97 C 400.62 338.58, 401.25 338.10, 402.07 337.98 C 402.88 337.85, 402.89 338.10, 402.67 339.33 C 402.45 340.56, 401.86 341.62, 400.97 344.13 C 400.08 346.64, 399.59 348.52, 398.23 351.88 C 396.87 355.25, 395.82 357.39, 394.16 360.97 C 392.50 364.54, 391.41 366.50, 389.93 369.76 C 388.46 373.02, 387.58 374.54, 386.78 377.27 C 385.99 380.00, 385.71 381.32, 385.97 383.40 C 386.23 385.49, 386.68 386.42, 388.08 387.69 C 389.47 388.95, 390.59 389.51, 392.96 389.75 C 395.33 389.98, 396.80 389.77, 399.92 388.87 C 403.05 387.96, 404.79 387.03, 408.57 385.23 C 412.36 383.43, 414.50 382.25, 418.85 379.87 C 423.20 377.50, 425.61 376.12, 430.32 373.36 C 435.02 370.60, 437.62 369.00, 442.38 366.07 C 447.14 363.14, 449.64 361.53, 454.10 358.71 C 458.55 355.90, 460.77 354.46, 464.67 351.99 C 468.56 349.52, 470.44 348.31, 473.55 346.35 C 476.67 344.39, 478.07 343.62, 480.24 342.20 C 482.40 340.77, 483.22 340.25, 484.37 339.23 C 485.51 338.21, 485.90 337.80, 485.97 337.10 C 486.05 336.40, 485.73 335.90, 484.75 335.74 C 483.76 335.58, 482.97 335.49, 481.04 336.29 C 479.10 337.09, 477.84 337.78, 475.05 339.74 C 472.27 341.70, 470.59 343.13, 467.11 346.08 C 463.63 349.02, 461.47 350.82, 457.66 354.46 C 453.85 358.11, 451.53 360.33, 448.05 364.31 C 444.57 368.29, 442.69 370.58, 440.24 374.36 C 437.78 378.14, 436.74 380.09, 435.77 383.21 C 434.80 386.33, 434.67 387.83, 435.38 389.95 C 436.09 392.06, 437.14 393.06, 439.33 393.78 C 441.51 394.50, 443.24 394.50, 446.31 393.55 C 449.37 392.59, 451.00 391.33, 454.65 389.00 C 458.30 386.67, 460.53 385.14, 464.55 381.90 C 468.58 378.65, 470.82 376.56, 474.77 372.78 C 478.71 369.00, 481.02 366.42, 484.27 363.01 C 487.53 359.60, 489.39 357.89, 491.05 355.71 C 492.72 353.54, 492.74 352.46, 492.58 352.14 C 492.42 351.81, 491.55 352.31, 490.25 354.10 C 488.95 355.89, 487.74 357.85, 486.08 361.08 C 484.41 364.31, 483.16 366.73, 481.92 370.25 C 480.69 373.76, 479.95 375.78, 479.90 378.65 C 479.86 381.52, 480.26 382.84, 481.70 384.59 C 483.14 386.34, 484.27 387.19, 487.10 387.40 C 489.93 387.60, 491.87 387.09, 495.83 385.62 C 499.78 384.16, 502.04 382.82, 506.88 380.07 C 511.73 377.32, 514.57 375.46, 520.04 371.88 C 525.50 368.30, 528.65 366.01, 534.19 362.18 C 539.72 358.35, 542.66 356.10, 547.72 352.72 C 552.77 349.35, 555.37 347.61, 559.46 345.29 C 563.54 342.96, 565.44 342.04, 568.13 341.09 C 570.82 340.14, 571.65 339.96, 572.90 340.54 C 574.15 341.11, 574.19 341.94, 574.38 343.96 C 574.56 345.98, 574.28 347.50, 573.83 350.62 C 573.38 353.73, 573.03 355.83, 572.13 359.52 C 571.24 363.21, 570.62 365.38, 569.37 369.06 C 568.12 372.73, 567.37 374.75, 565.88 377.90 C 564.38 381.05, 563.56 382.45, 561.89 384.82 C 560.23 387.20, 559.29 388.19, 557.55 389.79 C 555.81 391.39, 554.79 392.02, 553.21 392.81 C 551.63 393.61, 550.84 393.69, 549.66 393.76 C 548.47 393.83, 548.04 393.79, 547.29 393.16 C 546.55 392.54, 546.49 391.03, 545.93 390.65 C 545.36 390.26, 544.55 390.36, 544.49 391.22 C 544.43 392.08, 544.59 393.92, 545.62 394.95 C 546.65 395.99, 547.87 396.29, 549.63 396.39 C 551.39 396.49, 552.45 396.33, 554.44 395.46 C 556.44 394.59, 557.64 393.84, 559.61 392.04 C 561.58 390.24, 562.56 389.07, 564.30 386.47 C 566.04 383.87, 566.79 382.34, 568.31 379.03 C 569.83 375.73, 570.57 373.69, 571.89 369.93 C 573.22 366.17, 573.92 364.02, 574.95 360.24 C 575.98 356.47, 576.64 354.39, 577.04 351.04 C 577.44 347.68, 577.62 345.88, 576.95 343.46 C 576.28 341.04, 575.58 339.83, 573.67 338.92 C 571.76 338.00, 570.43 337.91, 567.39 338.87 C 564.36 339.82, 562.62 341.17, 558.50 343.67 C 554.39 346.17, 551.85 347.94, 546.81 351.38 C 541.77 354.82, 538.83 357.07, 533.29 360.88 C 527.75 364.70, 524.59 366.97, 519.11 370.45 C 513.64 373.93, 510.74 375.74, 505.91 378.29 C 501.08 380.84, 498.72 381.96, 494.98 383.22 C 491.23 384.49, 489.53 384.61, 487.21 384.62 C 484.88 384.63, 484.21 384.42, 483.36 383.28 C 482.50 382.13, 482.57 381.25, 482.93 378.88 C 483.28 376.51, 483.87 374.69, 485.14 371.44 C 486.42 368.20, 487.80 365.89, 489.30 362.66 C 490.80 359.43, 492.01 357.46, 492.66 355.29 C 493.31 353.12, 493.26 352.10, 492.55 351.83 C 491.83 351.56, 491.06 352.03, 489.08 353.96 C 487.09 355.89, 485.78 358.02, 482.64 361.49 C 479.49 364.96, 477.25 367.57, 473.36 371.31 C 469.48 375.06, 467.23 377.11, 463.21 380.20 C 459.20 383.29, 456.87 384.70, 453.30 386.78 C 449.72 388.86, 448.01 389.64, 445.33 390.59 C 442.65 391.54, 441.50 391.78, 439.90 391.54 C 438.31 391.29, 437.69 390.88, 437.35 389.37 C 437.01 387.87, 437.25 386.77, 438.20 384.00 C 439.14 381.23, 439.80 379.20, 442.07 375.53 C 444.35 371.86, 446.17 369.55, 449.58 365.64 C 452.98 361.74, 455.29 359.53, 459.12 356.02 C 462.94 352.51, 465.12 350.74, 468.69 348.08 C 472.27 345.42, 474.19 344.41, 477.00 342.71 C 479.80 341.01, 481.07 340.61, 482.72 339.56 C 484.37 338.52, 484.75 338.08, 485.26 337.47 C 485.77 336.87, 485.70 336.57, 485.26 336.53 C 484.81 336.49, 484.35 336.61, 483.03 337.27 C 481.71 337.92, 480.83 338.40, 478.67 339.82 C 476.51 341.24, 475.26 342.27, 472.24 344.37 C 469.22 346.47, 467.40 347.75, 463.57 350.31 C 459.74 352.86, 457.53 354.31, 453.10 357.15 C 448.68 360.00, 446.18 361.61, 441.43 364.52 C 436.68 367.43, 434.07 369.01, 429.36 371.70 C 424.64 374.38, 422.21 375.72, 417.84 377.95 C 413.47 380.17, 411.27 381.27, 407.50 382.81 C 403.74 384.36, 401.91 384.88, 399.03 385.66 C 396.14 386.44, 394.98 386.65, 393.08 386.71 C 391.18 386.77, 390.47 386.64, 389.53 385.95 C 388.59 385.26, 388.35 384.81, 388.39 383.26 C 388.43 381.70, 388.90 380.65, 389.73 378.18 C 390.55 375.71, 391.12 374.11, 392.52 370.91 C 393.91 367.71, 394.98 365.73, 396.72 362.19 C 398.46 358.64, 399.65 356.58, 401.22 353.18 C 402.79 349.79, 403.87 348.03, 404.59 345.22 C 405.30 342.41, 405.29 340.89, 404.80 339.14 C 404.32 337.39, 403.68 336.76, 402.16 336.48 C 400.65 336.21, 399.54 336.40, 397.20 337.75 C 394.87 339.11, 393.50 340.45, 390.48 343.27 C 387.46 346.09, 385.63 348.03, 382.11 351.87 C 378.59 355.70, 376.43 358.22, 372.87 362.45 C 369.32 366.68, 367.39 369.20, 364.36 373.01 C 361.32 376.82, 359.77 378.77, 357.68 381.50 C 355.60 384.23, 354.88 385.50, 353.92 386.66 C 352.96 387.82, 353.06 388.04, 352.88 387.30 C 352.70 386.57, 352.89 385.63, 353.03 382.98 C 353.17 380.33, 353.04 378.32, 353.57 374.05 C 354.10 369.77, 354.59 367.03, 355.67 361.62 C 356.75 356.22, 357.46 353.04, 359.00 347.03 C 360.53 341.02, 361.47 337.84, 363.34 331.57 C 365.21 325.29, 366.37 321.71, 368.36 315.63 C 370.36 309.56, 371.55 306.09, 373.31 301.19 C 375.08 296.29, 376.28 294.14, 377.19 291.14 C 378.10 288.14, 378.09 286.83, 377.87 286.18 C 377.64 285.52, 376.86 286.08, 376.07 287.88 C 375.28 289.68, 374.97 291.66, 373.91 295.19 C 372.86 298.71, 372.32 300.91, 370.80 305.50 C 369.28 310.08, 368.41 312.80, 366.32 318.11 C 364.24 323.42, 362.98 326.39, 360.38 332.05 C 357.77 337.72, 356.32 340.95, 353.29 346.42 C 350.26 351.88, 348.64 354.75, 345.23 359.38 C 341.82 364.02, 339.85 366.21, 336.24 369.60 C 332.64 372.98, 330.72 374.34, 327.21 376.32 C 323.71 378.29, 321.99 378.93, 318.72 379.46 C 315.45 379.99, 313.86 379.84, 310.88 378.96 C 307.90 378.09, 306.38 377.34, 303.82 375.09 C 301.27 372.83, 300.13 371.22, 298.11 367.69 C 296.09 364.16, 295.15 361.88, 293.74 357.43 C 292.32 352.98, 291.80 350.34, 291.03 345.45 C 290.26 340.56, 290.11 337.74, 289.88 332.99 C 289.64 328.23, 289.96 325.45, 289.86 321.65 C 289.76 317.85, 289.88 315.92, 289.37 313.99 C 288.86 312.06, 288.28 311.54, 287.30 311.99 C 286.32 312.45, 285.62 313.39, 284.48 316.26 C 283.34 319.12, 283.03 321.48, 281.59 326.32 C 280.15 331.16, 279.27 334.41, 277.29 340.46 C 275.31 346.51, 274.02 350.05, 271.70 356.58 C 269.38 363.12, 268.07 366.75, 265.69 373.13 C 263.31 379.52, 261.99 382.95, 259.80 388.52 C 257.62 394.08, 256.28 397.07, 254.76 400.95 C 253.23 404.82, 252.48 406.40, 252.17 407.91 C 251.87 409.41, 252.51 409.80, 253.25 408.46 C 253.98 407.12, 254.33 405.50, 255.85 401.20 C 257.37 396.90, 258.18 393.87, 260.84 386.96 C 263.50 380.05, 265.47 375.47, 269.16 366.65 C 272.84 357.84, 274.99 352.72, 279.26 342.88 C 283.53 333.04, 285.94 327.57, 290.50 317.46 C 295.05 307.35, 297.69 301.94, 302.05 292.34 C 306.40 282.73, 308.68 277.78, 312.25 269.43 C 315.83 261.08, 317.49 256.96, 319.94 250.58 C 322.39 244.20, 323.68 241.37, 324.51 237.52 C 325.34 233.67, 325.08 232.29, 324.09 231.34 C 323.09 230.38, 321.75 230.70, 319.53 232.75 C 317.31 234.79, 316.25 237.16, 313.01 241.56 C 309.77 245.97, 307.63 249.02, 303.34 254.79 C 299.05 260.56, 296.43 264.01, 291.57 270.42 C 286.70 276.83, 284.09 280.33, 279.01 286.84 C 273.92 293.34, 271.15 296.81, 266.14 302.95 C 261.12 309.09, 258.38 312.11, 253.94 317.53 C 249.51 322.95, 247.32 325.85, 243.95 330.05 C 240.58 334.26, 239.05 335.83, 237.09 338.56 C 235.13 341.28, 234.53 342.48, 234.15 343.66 C 233.78 344.83, 234.24 345.14, 235.22 344.42" style="stroke: black; fill: black;"/><path d="M 623.62,283.25 C 623.25 283.73, 623.35 283.93, 622.85 285.66 C 622.35 287.39, 622.19 288.49, 621.12 291.90 C 620.04 295.30, 619.43 297.66, 617.48 302.67 C 615.53 307.68, 614.15 310.96, 611.39 316.96 C 608.62 322.97, 606.80 326.53, 603.65 332.70 C 600.50 338.87, 598.56 342.22, 595.64 347.82 C 592.72 353.41, 591.12 356.24, 589.05 360.68 C 586.97 365.12, 585.65 367.24, 585.26 370.02 C 584.86 372.79, 585.45 373.90, 587.07 374.57 C 588.69 375.25, 590.18 374.83, 593.36 373.38 C 596.54 371.92, 598.60 370.12, 602.96 367.31 C 607.33 364.49, 610.20 362.38, 615.20 359.29 C 620.19 356.21, 623.38 354.19, 627.92 351.87 C 632.47 349.54, 634.87 348.61, 637.92 347.65 C 640.97 346.68, 641.95 346.56, 643.16 347.04 C 644.38 347.52, 644.23 348.11, 643.99 350.04 C 643.74 351.97, 642.90 353.59, 641.95 356.70 C 641.00 359.80, 640.14 362.01, 639.26 365.56 C 638.37 369.11, 637.62 371.24, 637.52 374.45 C 637.43 377.66, 637.50 379.30, 638.78 381.63 C 640.05 383.96, 641.00 385.23, 643.89 386.08 C 646.79 386.94, 649.40 386.39, 653.24 385.90 C 657.08 385.41, 659.61 384.73, 663.11 383.63 C 666.60 382.53, 669.29 381.33, 670.72 380.39 C 672.15 379.45, 671.91 378.85, 670.24 378.93 C 668.56 379.02, 665.82 380.03, 662.34 380.83 C 658.86 381.62, 656.39 382.41, 652.84 382.91 C 649.29 383.40, 646.98 383.76, 644.60 383.28 C 642.23 382.80, 641.76 382.24, 640.97 380.51 C 640.18 378.79, 640.37 377.48, 640.67 374.65 C 640.96 371.83, 641.54 369.79, 642.44 366.38 C 643.35 362.96, 644.38 360.85, 645.18 357.58 C 645.98 354.31, 646.69 352.43, 646.42 350.03 C 646.15 347.62, 645.68 346.48, 643.85 345.55 C 642.02 344.63, 640.64 344.50, 637.27 345.40 C 633.89 346.30, 631.61 347.62, 626.98 350.04 C 622.35 352.47, 619.18 354.49, 614.12 357.54 C 609.07 360.59, 606.10 362.61, 601.71 365.32 C 597.32 368.02, 595.04 369.44, 592.18 371.05 C 589.33 372.66, 588.40 373.49, 587.44 373.37 C 586.48 373.25, 586.73 372.84, 587.39 370.45 C 588.06 368.07, 588.83 365.84, 590.76 361.46 C 592.69 357.08, 594.20 354.15, 597.05 348.55 C 599.91 342.94, 601.86 339.58, 605.04 333.41 C 608.22 327.24, 610.06 323.68, 612.95 317.70 C 615.84 311.72, 617.30 308.48, 619.50 303.51 C 621.71 298.54, 622.80 296.32, 623.99 292.85 C 625.19 289.37, 625.33 288.05, 625.48 286.13 C 625.63 284.21, 625.12 283.83, 624.74 283.26 C 624.37 282.68, 624.00 282.77, 623.62 283.25" style="stroke: black; fill: black;"/><path d="M 816.82,282.13 C 816.42 282.50, 816.56 282.64, 815.94 284.05 C 815.33 285.45, 815.02 286.18, 813.74 289.14 C 812.46 292.10, 811.99 294.14, 809.54 298.84 C 807.10 303.54, 805.35 306.49, 801.51 312.63 C 797.66 318.77, 795.16 322.48, 790.31 329.55 C 785.45 336.63, 782.43 340.59, 777.22 348.00 C 772.01 355.41, 769.12 359.48, 764.23 366.60 C 759.35 373.72, 756.70 377.43, 752.79 383.59 C 748.89 389.76, 747.15 392.71, 744.70 397.43 C 742.25 402.16, 741.19 404.11, 740.55 407.20 C 739.91 410.29, 740.16 411.66, 741.48 412.87 C 742.79 414.09, 744.15 414.34, 747.12 413.28 C 750.10 412.23, 751.84 410.80, 756.34 407.59 C 760.83 404.39, 763.56 402.04, 769.58 397.24 C 775.60 392.44, 779.23 389.35, 786.43 383.58 C 793.64 377.82, 797.77 374.60, 805.61 368.41 C 813.44 362.22, 817.71 358.80, 825.60 352.63 C 833.49 346.46, 837.72 343.26, 845.06 337.57 C 852.40 331.89, 856.14 329.00, 862.29 324.20 C 868.44 319.41, 871.30 317.08, 875.80 313.60 C 880.29 310.13, 882.32 308.90, 884.77 306.83 C 887.22 304.77, 887.44 304.21, 888.03 303.26 C 888.61 302.31, 887.81 302.31, 887.69 302.08 C 887.57 301.85, 887.53 302.01, 887.44 302.10 C 887.35 302.20, 888.05 301.95, 887.25 302.57 C 886.44 303.19, 885.90 303.22, 883.42 305.19 C 880.95 307.17, 879.24 308.82, 874.87 312.44 C 870.49 316.06, 867.65 318.42, 861.56 323.28 C 855.47 328.14, 851.74 331.04, 844.42 336.75 C 837.10 342.46, 832.87 345.67, 824.98 351.84 C 817.09 358.01, 812.82 361.42, 804.96 367.58 C 797.10 373.74, 792.95 376.95, 785.69 382.64 C 778.43 388.34, 774.75 391.39, 768.65 396.05 C 762.55 400.71, 759.69 402.95, 755.19 405.94 C 750.70 408.92, 748.76 409.77, 746.18 410.98 C 743.61 412.18, 743.05 412.61, 742.33 411.95 C 741.61 411.29, 741.82 410.45, 742.58 407.69 C 743.34 404.93, 743.86 402.83, 746.12 398.14 C 748.38 393.46, 750.07 390.45, 753.88 384.27 C 757.69 378.10, 760.33 374.37, 765.19 367.25 C 770.05 360.13, 772.93 356.07, 778.17 348.67 C 783.40 341.28, 786.43 337.32, 791.36 330.28 C 796.29 323.25, 798.81 319.56, 802.83 313.48 C 806.84 307.40, 808.65 304.50, 811.42 299.89 C 814.19 295.29, 815.27 293.48, 816.67 290.45 C 818.06 287.42, 818.16 286.39, 818.41 284.75 C 818.66 283.10, 818.24 282.75, 817.92 282.23 C 817.60 281.70, 817.21 281.77, 816.82 282.13" style="stroke: black; fill: black;"/><path d="M 821.40,356.79 C 820.62 357.29, 819.72 358.10, 818.76 359.97 C 817.81 361.83, 817.31 363.22, 816.62 366.12 C 815.92 369.03, 815.51 371.04, 815.27 374.49 C 815.03 377.94, 815.12 380.02, 815.41 383.36 C 815.69 386.70, 815.90 388.31, 816.69 391.20 C 817.49 394.08, 817.91 395.51, 819.38 397.80 C 820.85 400.08, 821.68 401.30, 824.04 402.62 C 826.41 403.94, 827.85 404.46, 831.18 404.39 C 834.52 404.33, 836.58 403.80, 840.71 402.28 C 844.84 400.77, 847.16 399.58, 851.85 396.81 C 856.54 394.04, 859.20 392.09, 864.17 388.44 C 869.13 384.79, 871.92 382.53, 876.69 378.55 C 881.46 374.58, 883.94 372.28, 888.01 368.58 C 892.08 364.87, 894.20 362.87, 897.05 360.04 C 899.89 357.22, 901.25 355.80, 902.23 354.45 C 903.20 353.09, 902.82 352.60, 901.92 353.28 C 901.01 353.95, 899.67 355.08, 897.70 357.82 C 895.74 360.56, 894.40 362.98, 892.10 366.97 C 889.80 370.97, 888.29 373.59, 886.20 377.79 C 884.11 381.98, 882.95 384.23, 881.65 387.95 C 880.36 391.66, 879.77 393.53, 879.73 396.37 C 879.69 399.22, 880.00 400.43, 881.45 402.19 C 882.89 403.94, 884.13 404.76, 886.95 405.15 C 889.78 405.54, 891.72 405.24, 895.58 404.15 C 899.43 403.05, 901.61 402.10, 906.23 399.69 C 910.86 397.28, 913.61 395.51, 918.71 392.10 C 923.82 388.68, 926.77 386.38, 931.76 382.62 C 936.75 378.86, 939.67 376.33, 943.67 373.30 C 947.67 370.27, 949.76 368.99, 951.76 367.47 C 953.76 365.94, 953.87 365.32, 953.67 365.66 C 953.46 366.01, 952.26 366.93, 950.74 369.20 C 949.21 371.47, 947.86 373.68, 946.03 377.01 C 944.20 380.34, 942.97 382.50, 941.58 385.85 C 940.18 389.20, 939.32 390.99, 939.07 393.75 C 938.82 396.51, 939.10 397.90, 940.32 399.65 C 941.54 401.39, 942.64 402.09, 945.18 402.47 C 947.71 402.85, 949.40 402.65, 953.01 401.54 C 956.62 400.42, 958.75 399.26, 963.22 396.91 C 967.69 394.56, 970.28 392.81, 975.35 389.77 C 980.42 386.72, 983.43 384.78, 988.56 381.70 C 993.70 378.62, 996.51 376.82, 1001.02 374.35 C 1005.53 371.88, 1007.85 370.72, 1011.12 369.37 C 1014.39 368.01, 1015.77 367.64, 1017.38 367.58 C 1019.00 367.51, 1019.23 367.85, 1019.20 369.06 C 1019.16 370.27, 1018.41 371.23, 1017.22 373.64 C 1016.04 376.04, 1015.09 377.98, 1013.27 381.09 C 1011.45 384.20, 1009.99 386.25, 1008.13 389.20 C 1006.27 392.15, 1004.87 393.70, 1003.97 395.86 C 1003.07 398.01, 1002.97 399.19, 1003.62 399.98 C 1004.28 400.78, 1005.18 400.86, 1007.25 399.83 C 1009.33 398.81, 1010.64 397.45, 1014.00 394.88 C 1017.36 392.31, 1019.58 390.31, 1024.07 386.98 C 1028.55 383.66, 1031.41 381.55, 1036.45 378.24 C 1041.49 374.93, 1044.44 373.03, 1049.27 370.43 C 1054.10 367.83, 1056.93 366.65, 1060.60 365.23 C 1064.28 363.81, 1065.86 363.47, 1067.63 363.33 C 1069.40 363.18, 1069.48 363.29, 1069.44 364.50 C 1069.41 365.71, 1068.68 366.81, 1067.45 369.37 C 1066.21 371.94, 1065.13 374.05, 1063.27 377.31 C 1061.41 380.57, 1059.97 382.60, 1058.15 385.67 C 1056.32 388.73, 1054.94 390.40, 1054.15 392.64 C 1053.36 394.87, 1053.39 395.97, 1054.20 396.85 C 1055.01 397.74, 1055.95 397.99, 1058.22 397.06 C 1060.48 396.12, 1061.97 394.72, 1065.51 392.18 C 1069.06 389.64, 1071.34 387.68, 1075.96 384.35 C 1080.58 381.02, 1083.51 378.86, 1088.62 375.54 C 1093.73 372.21, 1096.85 370.26, 1101.51 367.72 C 1106.16 365.19, 1108.53 364.15, 1111.90 362.87 C 1115.27 361.59, 1116.61 361.32, 1118.34 361.32 C 1120.06 361.32, 1120.42 361.69, 1120.53 362.85 C 1120.63 364.01, 1119.88 364.92, 1118.87 367.13 C 1117.86 369.35, 1116.93 370.99, 1115.48 373.92 C 1114.03 376.86, 1112.92 378.75, 1111.62 381.82 C 1110.32 384.90, 1109.43 386.62, 1108.99 389.29 C 1108.55 391.96, 1108.60 393.37, 1109.42 395.17 C 1110.25 396.98, 1110.94 397.68, 1113.09 398.32 C 1115.24 398.95, 1116.79 399.09, 1120.18 398.36 C 1123.56 397.63, 1125.63 396.54, 1130.02 394.65 C 1134.41 392.75, 1136.94 391.41, 1142.13 388.88 C 1147.32 386.35, 1150.42 384.84, 1155.97 382.01 C 1161.53 379.18, 1164.52 377.46, 1169.90 374.73 C 1175.28 372.00, 1178.05 370.65, 1182.86 368.36 C 1187.67 366.07, 1190.10 365.00, 1193.96 363.27 C 1197.81 361.54, 1199.69 361.01, 1202.14 359.70 C 1204.59 358.40, 1205.36 357.74, 1206.22 356.75 C 1207.07 355.76, 1207.13 355.32, 1206.42 354.74 C 1205.71 354.15, 1204.79 353.68, 1202.67 353.84 C 1200.55 354.00, 1199.03 354.29, 1195.84 355.53 C 1192.65 356.76, 1190.62 357.84, 1186.72 360.00 C 1182.83 362.17, 1180.46 363.60, 1176.38 366.34 C 1172.31 369.08, 1170.01 370.70, 1166.33 373.72 C 1162.65 376.75, 1160.71 378.52, 1157.97 381.45 C 1155.23 384.38, 1153.95 385.81, 1152.65 388.36 C 1151.34 390.90, 1151.13 392.24, 1151.46 394.16 C 1151.79 396.08, 1152.49 397.08, 1154.30 397.97 C 1156.11 398.86, 1157.56 399.18, 1160.49 398.59 C 1163.41 398.00, 1165.19 396.96, 1168.92 395.00 C 1172.66 393.04, 1174.85 391.64, 1179.15 388.81 C 1183.45 385.98, 1185.91 384.13, 1190.43 380.87 C 1194.94 377.60, 1197.76 375.45, 1201.71 372.49 C 1205.65 369.53, 1207.88 367.99, 1210.13 366.08 C 1212.38 364.16, 1212.88 363.21, 1212.96 362.90 C 1213.04 362.58, 1212.02 362.95, 1210.55 364.51 C 1209.07 366.08, 1207.58 367.77, 1205.58 370.74 C 1203.58 373.70, 1202.10 375.97, 1200.53 379.33 C 1198.97 382.68, 1198.07 384.62, 1197.74 387.50 C 1197.42 390.37, 1197.67 391.80, 1198.90 393.70 C 1200.13 395.61, 1201.19 396.52, 1203.90 397.02 C 1206.62 397.52, 1208.42 397.25, 1212.48 396.21 C 1216.54 395.16, 1219.03 394.02, 1224.20 391.79 C 1229.36 389.56, 1232.39 388.00, 1238.31 385.07 C 1244.23 382.14, 1247.79 380.18, 1253.79 377.14 C 1259.80 374.11, 1263.10 372.26, 1268.34 369.88 C 1273.57 367.50, 1276.22 366.49, 1279.98 365.24 C 1283.73 363.99, 1285.44 363.62, 1287.11 363.64 C 1288.78 363.66, 1288.75 363.87, 1288.31 365.34 C 1287.87 366.81, 1286.85 368.23, 1284.91 370.99 C 1282.97 373.75, 1281.24 375.91, 1278.61 379.14 C 1275.99 382.38, 1273.96 384.31, 1271.77 387.17 C 1269.59 390.02, 1268.28 391.55, 1267.69 393.42 C 1267.09 395.28, 1267.35 396.24, 1268.79 396.50 C 1270.24 396.76, 1271.66 396.26, 1274.92 394.70 C 1278.17 393.15, 1280.25 391.49, 1285.07 388.73 C 1289.89 385.98, 1293.12 384.08, 1299.03 380.93 C 1304.93 377.78, 1308.45 375.92, 1314.61 372.97 C 1320.76 370.02, 1324.17 368.52, 1329.79 366.18 C 1335.40 363.84, 1338.06 362.80, 1342.68 361.27 C 1347.30 359.73, 1349.58 359.31, 1352.90 358.52 C 1356.23 357.72, 1357.38 357.69, 1359.31 357.31 C 1361.25 356.93, 1361.63 356.80, 1362.58 356.60 C 1363.54 356.39, 1363.78 356.50, 1364.09 356.30 C 1364.41 356.11, 1364.46 355.86, 1364.15 355.62 C 1363.83 355.37, 1363.56 355.21, 1362.52 355.08 C 1361.48 354.96, 1360.99 354.75, 1358.95 354.99 C 1356.91 355.23, 1355.71 355.37, 1352.34 356.28 C 1348.96 357.19, 1346.72 357.87, 1342.09 359.56 C 1337.45 361.25, 1334.80 362.32, 1329.17 364.72 C 1323.54 367.12, 1320.12 368.63, 1313.93 371.56 C 1307.74 374.50, 1304.21 376.34, 1298.22 379.39 C 1292.24 382.43, 1288.91 384.21, 1284.00 386.78 C 1279.09 389.36, 1276.72 390.57, 1273.66 392.26 C 1270.60 393.94, 1269.53 394.78, 1268.70 395.21 C 1267.86 395.64, 1268.37 395.62, 1269.48 394.41 C 1270.59 393.20, 1271.93 391.84, 1274.23 389.17 C 1276.54 386.50, 1278.35 384.37, 1281.00 381.06 C 1283.64 377.75, 1285.62 375.72, 1287.45 372.62 C 1289.28 369.52, 1290.18 367.69, 1290.16 365.55 C 1290.13 363.41, 1289.49 362.37, 1287.32 361.92 C 1285.16 361.47, 1283.27 362.00, 1279.33 363.29 C 1275.39 364.57, 1272.87 365.86, 1267.62 368.34 C 1262.37 370.83, 1259.08 372.68, 1253.07 375.72 C 1247.06 378.76, 1243.50 380.70, 1237.57 383.54 C 1231.64 386.38, 1228.56 387.88, 1223.42 389.92 C 1218.28 391.96, 1215.70 392.85, 1211.87 393.73 C 1208.05 394.62, 1206.52 394.58, 1204.30 394.34 C 1202.07 394.11, 1201.44 393.84, 1200.74 392.58 C 1200.04 391.32, 1200.20 390.37, 1200.78 388.02 C 1201.37 385.68, 1202.09 383.91, 1203.65 380.84 C 1205.21 377.77, 1206.78 375.65, 1208.59 372.67 C 1210.40 369.68, 1211.82 367.97, 1212.70 365.92 C 1213.58 363.87, 1213.82 362.80, 1213.00 362.41 C 1212.17 362.03, 1211.09 362.33, 1208.57 364.00 C 1206.05 365.67, 1204.25 367.72, 1200.38 370.77 C 1196.52 373.82, 1193.73 376.00, 1189.25 379.24 C 1184.77 382.48, 1182.27 384.29, 1177.97 386.96 C 1173.66 389.62, 1171.37 390.89, 1167.72 392.55 C 1164.07 394.22, 1162.25 394.62, 1159.72 395.29 C 1157.19 395.96, 1156.33 396.19, 1155.07 395.92 C 1153.81 395.65, 1153.43 395.20, 1153.43 393.96 C 1153.44 392.71, 1153.82 391.86, 1155.08 389.68 C 1156.35 387.50, 1157.22 385.92, 1159.75 383.07 C 1162.28 380.22, 1164.15 378.38, 1167.73 375.42 C 1171.30 372.45, 1173.58 370.84, 1177.63 368.23 C 1181.67 365.62, 1184.06 364.24, 1187.95 362.37 C 1191.84 360.50, 1194.00 359.95, 1197.07 358.88 C 1200.15 357.82, 1201.49 357.69, 1203.32 357.04 C 1205.15 356.40, 1205.81 356.00, 1206.21 355.68 C 1206.60 355.35, 1206.38 355.11, 1205.31 355.41 C 1204.25 355.72, 1203.32 356.01, 1200.87 357.20 C 1198.42 358.39, 1196.80 359.45, 1193.05 361.37 C 1189.29 363.28, 1186.86 364.39, 1182.08 366.77 C 1177.30 369.14, 1174.52 370.51, 1169.15 373.25 C 1163.77 375.99, 1160.77 377.71, 1155.21 380.48 C 1149.64 383.26, 1146.52 384.75, 1141.30 387.14 C 1136.09 389.52, 1133.48 390.77, 1129.12 392.43 C 1124.77 394.08, 1122.62 394.70, 1119.52 395.40 C 1116.42 396.10, 1115.24 396.12, 1113.62 395.92 C 1112.00 395.73, 1111.71 395.61, 1111.41 394.43 C 1111.12 393.24, 1111.46 392.25, 1112.13 390.00 C 1112.80 387.76, 1113.46 386.10, 1114.77 383.20 C 1116.08 380.30, 1117.25 378.48, 1118.70 375.50 C 1120.14 372.51, 1121.29 370.88, 1122.01 368.26 C 1122.73 365.63, 1122.99 364.14, 1122.28 362.37 C 1121.58 360.59, 1120.73 359.68, 1118.49 359.37 C 1116.26 359.05, 1114.70 359.44, 1111.11 360.78 C 1107.53 362.12, 1105.29 363.42, 1100.59 366.06 C 1095.89 368.70, 1092.78 370.68, 1087.61 373.98 C 1082.44 377.29, 1079.47 379.40, 1074.74 382.60 C 1070.01 385.79, 1067.53 387.54, 1063.97 389.96 C 1060.40 392.37, 1058.75 393.40, 1056.93 394.67 C 1055.11 395.94, 1054.91 396.45, 1054.86 396.30 C 1054.82 396.15, 1055.47 395.68, 1056.69 393.90 C 1057.90 392.12, 1059.05 390.37, 1060.94 387.38 C 1062.82 384.39, 1064.20 382.29, 1066.12 378.94 C 1068.03 375.59, 1069.51 373.56, 1070.51 370.61 C 1071.51 367.67, 1071.68 366.05, 1071.11 364.21 C 1070.54 362.37, 1069.92 361.62, 1067.66 361.41 C 1065.40 361.21, 1063.67 361.70, 1059.81 363.18 C 1055.96 364.65, 1053.25 366.09, 1048.37 368.79 C 1043.50 371.50, 1040.56 373.40, 1035.44 376.69 C 1030.32 379.97, 1027.42 382.02, 1022.80 385.21 C 1018.18 388.40, 1015.74 390.17, 1012.34 392.65 C 1008.94 395.13, 1007.43 396.21, 1005.80 397.61 C 1004.17 399.01, 1004.05 399.70, 1004.18 399.64 C 1004.32 399.58, 1005.14 399.05, 1006.49 397.32 C 1007.84 395.60, 1009.02 393.93, 1010.95 391.03 C 1012.89 388.12, 1014.28 386.01, 1016.17 382.79 C 1018.06 379.57, 1019.44 377.76, 1020.41 374.95 C 1021.37 372.14, 1021.57 370.59, 1020.99 368.74 C 1020.41 366.88, 1019.65 365.98, 1017.50 365.68 C 1015.36 365.38, 1013.74 365.85, 1010.25 367.26 C 1006.77 368.66, 1004.62 370.11, 1000.10 372.70 C 995.58 375.28, 992.79 377.09, 987.65 380.17 C 982.50 383.26, 979.48 385.19, 974.39 388.13 C 969.30 391.08, 966.64 392.75, 962.20 394.90 C 957.76 397.04, 955.55 397.87, 952.20 398.85 C 948.85 399.82, 947.47 399.86, 945.44 399.79 C 943.41 399.72, 942.76 399.61, 942.06 398.48 C 941.37 397.36, 941.49 396.45, 941.98 394.18 C 942.47 391.91, 943.12 390.24, 944.53 387.14 C 945.94 384.03, 947.23 381.95, 949.03 378.66 C 950.84 375.37, 952.49 373.33, 953.56 370.69 C 954.62 368.05, 954.96 366.49, 954.36 365.47 C 953.76 364.44, 952.95 364.33, 950.56 365.58 C 948.18 366.83, 946.41 368.58, 942.44 371.71 C 938.46 374.84, 935.64 377.44, 930.69 381.22 C 925.75 384.99, 922.80 387.27, 917.71 390.58 C 912.63 393.90, 909.84 395.58, 905.28 397.78 C 900.71 399.98, 898.50 400.68, 894.89 401.58 C 891.29 402.48, 889.61 402.44, 887.25 402.29 C 884.89 402.14, 884.04 402.00, 883.07 400.84 C 882.09 399.68, 882.19 398.91, 882.38 396.49 C 882.57 394.07, 882.81 392.28, 884.01 388.76 C 885.21 385.24, 886.27 382.96, 888.38 378.90 C 890.49 374.84, 892.20 372.33, 894.59 368.46 C 896.98 364.58, 898.67 362.44, 900.35 359.52 C 902.03 356.61, 902.85 355.13, 903.00 353.87 C 903.15 352.60, 902.60 352.29, 901.09 353.20 C 899.58 354.11, 898.30 355.61, 895.44 358.42 C 892.58 361.23, 890.75 363.49, 886.79 367.26 C 882.82 371.03, 880.35 373.31, 875.62 377.26 C 870.89 381.21, 868.09 383.45, 863.13 387.01 C 858.18 390.58, 855.49 392.47, 850.85 395.07 C 846.21 397.66, 843.86 398.72, 839.92 400.00 C 835.98 401.29, 834.04 401.46, 831.14 401.50 C 828.24 401.53, 827.27 401.22, 825.42 400.17 C 823.58 399.12, 823.03 398.21, 821.90 396.25 C 820.77 394.29, 820.44 393.01, 819.77 390.38 C 819.10 387.75, 818.77 386.23, 818.55 383.12 C 818.34 380.00, 818.31 378.02, 818.67 374.80 C 819.03 371.57, 819.77 369.73, 820.36 366.98 C 820.95 364.22, 821.18 362.94, 821.63 361.04 C 822.09 359.13, 822.67 358.30, 822.62 357.45 C 822.58 356.60, 822.17 356.29, 821.40 356.79" style="stroke: black; fill: black;"/></svg>