<svg xmlns="http://www.w3.org/2000/svg" id="canvas" viewBox="317.142 198.698 1188.643 239.194"><path d="M 320.46,311.16 C 321.26 314.48, 323.18 319.24, 325.75 327.34 C 328.32 335.45, 330.15 341.38, 333.31 351.70 C 336.47 362.02, 338.59 368.96, 341.55 378.96 C 344.50 388.96, 345.91 393.91, 348.08 401.71 C 350.26 409.51, 351.10 412.90, 352.43 417.95 C 353.77 423.00, 353.88 425.01, 354.76 426.94 C 355.64 428.86, 356.65 429.07, 356.84 427.58 C 357.02 426.09, 356.74 424.38, 355.70 419.47 C 354.66 414.56, 353.63 411.14, 351.62 403.03 C 349.61 394.91, 348.20 389.50, 345.64 378.90 C 343.07 368.30, 341.33 361.78, 338.78 350.03 C 336.23 338.28, 334.84 331.90, 332.88 320.14 C 330.91 308.39, 329.97 302.19, 328.96 291.25 C 327.95 280.32, 327.60 274.87, 327.84 265.45 C 328.09 256.04, 328.59 251.72, 330.18 244.16 C 331.76 236.59, 332.91 233.10, 335.75 227.63 C 338.59 222.15, 340.26 219.69, 344.37 216.79 C 348.47 213.89, 350.94 213.05, 356.29 213.13 C 361.63 213.21, 364.80 214.03, 371.09 217.21 C 377.38 220.38, 380.98 222.79, 387.75 229.00 C 394.52 235.21, 398.20 239.36, 404.93 248.24 C 411.67 257.12, 415.07 262.60, 421.44 273.40 C 427.81 284.20, 430.92 290.35, 436.80 302.24 C 442.69 314.14, 445.65 320.77, 450.86 332.87 C 456.07 344.97, 458.65 351.50, 462.86 362.73 C 467.06 373.96, 469.01 379.51, 471.87 389.03 C 474.74 398.54, 475.99 403.09, 477.20 410.30 C 478.41 417.50, 478.65 420.73, 477.90 425.06 C 477.16 429.40, 476.47 430.50, 473.48 431.97 C 470.50 433.45, 468.54 433.31, 462.99 432.42 C 457.44 431.53, 453.63 430.10, 445.73 427.52 C 437.82 424.94, 432.75 422.91, 423.45 419.51 C 414.15 416.11, 408.58 414.02, 399.24 410.53 C 389.90 407.03, 384.68 405.23, 376.74 402.05 C 368.81 398.86, 364.76 397.32, 359.57 394.62 C 354.37 391.91, 352.47 390.43, 350.77 388.50 C 349.07 386.57, 348.95 386.54, 351.06 384.95 C 353.18 383.36, 355.31 382.24, 361.34 380.54 C 367.38 378.85, 372.06 377.86, 381.23 376.47 C 390.41 375.07, 396.38 374.48, 407.22 373.57 C 418.05 372.65, 424.48 372.30, 435.41 371.90 C 446.34 371.50, 452.65 371.56, 461.88 371.57 C 471.11 371.58, 475.32 371.79, 481.57 371.97 C 487.82 372.14, 490.80 372.58, 493.12 372.44 C 495.45 372.31, 495.48 371.62, 493.18 371.27 C 490.87 370.93, 487.86 370.88, 481.60 370.70 C 475.34 370.52, 471.13 370.34, 461.88 370.36 C 452.63 370.37, 446.32 370.37, 435.37 370.77 C 424.42 371.18, 417.99 371.52, 407.12 372.37 C 396.25 373.21, 390.27 373.71, 381.02 374.99 C 371.76 376.27, 367.11 377.09, 360.86 378.77 C 354.60 380.45, 352.06 381.21, 349.74 383.40 C 347.42 385.58, 347.43 387.17, 349.25 389.70 C 351.07 392.23, 353.43 393.33, 358.84 396.05 C 364.24 398.76, 368.26 400.14, 376.26 403.27 C 384.25 406.40, 389.46 408.19, 398.81 411.68 C 408.16 415.18, 413.70 417.29, 422.99 420.75 C 432.27 424.21, 437.29 426.31, 445.24 429.00 C 453.18 431.68, 456.89 433.25, 462.71 434.17 C 468.52 435.09, 470.95 435.36, 474.31 433.59 C 477.66 431.82, 478.65 430.04, 479.49 425.34 C 480.32 420.63, 479.79 417.40, 478.47 410.08 C 477.14 402.76, 475.82 398.26, 472.87 388.72 C 469.92 379.19, 467.96 373.65, 463.72 362.41 C 459.47 351.17, 456.88 344.64, 451.66 332.53 C 446.43 320.42, 443.47 313.78, 437.59 301.85 C 431.71 289.93, 428.62 283.78, 422.26 272.92 C 415.90 262.07, 412.53 256.56, 405.80 247.58 C 399.08 238.61, 395.43 234.40, 388.62 228.05 C 381.82 221.70, 378.24 219.17, 371.78 215.85 C 365.32 212.53, 361.99 211.53, 356.31 211.45 C 350.64 211.37, 347.78 212.34, 343.41 215.44 C 339.03 218.54, 337.33 221.26, 334.44 226.95 C 331.55 232.65, 330.48 236.21, 328.94 243.91 C 327.41 251.60, 326.95 255.94, 326.75 265.43 C 326.55 274.92, 326.93 280.37, 327.97 291.35 C 329.00 302.32, 329.96 308.52, 331.92 320.30 C 333.88 332.08, 335.27 338.47, 337.77 350.25 C 340.27 362.03, 341.99 368.55, 344.43 379.18 C 346.87 389.82, 348.17 395.26, 349.98 403.41 C 351.79 411.57, 352.38 415.08, 353.49 419.95 C 354.60 424.82, 354.95 426.46, 355.53 427.76 C 356.12 429.06, 356.69 428.51, 356.40 426.46 C 356.11 424.40, 355.50 422.52, 354.09 417.50 C 352.68 412.48, 351.62 409.13, 349.35 401.35 C 347.07 393.57, 345.69 388.61, 342.72 378.61 C 339.74 368.61, 337.63 361.67, 334.47 351.34 C 331.32 341.02, 329.47 335.09, 326.93 326.97 C 324.39 318.85, 323.06 313.90, 321.77 310.74 C 320.47 307.58, 319.66 307.84, 320.46 311.16" style="stroke:#ffffff; fill:#ffffff;"/><path d="M 551.16,399.47 C 551.46 400.17, 552.36 400.73, 553.20 400.95 C 554.05 401.17, 554.86 400.97, 555.41 400.56 C 555.95 400.15, 556.15 399.55, 555.92 398.91 C 555.69 398.26, 555.12 397.60, 554.28 397.32 C 553.44 397.04, 552.34 397.07, 551.72 397.50 C 551.10 397.93, 550.86 398.78, 551.16 399.47" style="stroke:#ffffff; fill:#ffffff;"/><path d="M 685.56,204.04 C 685.90 207.01, 687.05 210.84, 688.73 218.58 C 690.42 226.33, 691.52 231.76, 694.00 242.76 C 696.48 253.77, 698.06 261.12, 701.13 273.62 C 704.20 286.11, 706.01 293.22, 709.34 305.22 C 712.67 317.22, 714.41 323.28, 717.78 333.62 C 721.15 343.96, 722.69 349.13, 726.20 356.92 C 729.70 364.70, 731.48 367.85, 735.31 372.55 C 739.14 377.25, 740.98 378.92, 745.35 380.41 C 749.71 381.90, 751.94 381.77, 757.14 380.01 C 762.34 378.25, 765.10 376.43, 771.36 371.62 C 777.62 366.81, 781.05 363.43, 788.45 355.96 C 795.84 348.49, 800.13 343.63, 808.32 334.27 C 816.51 324.91, 821.19 319.40, 829.41 309.16 C 837.63 298.92, 841.90 293.10, 849.41 283.08 C 856.91 273.07, 860.64 267.79, 866.95 259.08 C 873.27 250.37, 876.24 246.26, 880.97 239.54 C 885.69 232.82, 887.76 229.93, 890.57 225.49 C 893.38 221.06, 894.31 219.10, 895.01 217.36 C 895.72 215.63, 895.20 215.35, 894.08 216.83 C 892.96 218.31, 892.24 220.36, 889.42 224.76 C 886.60 229.16, 884.63 232.10, 879.98 238.85 C 875.32 245.60, 872.40 249.76, 866.14 258.50 C 859.88 267.23, 856.16 272.52, 848.67 282.53 C 841.18 292.55, 836.91 298.37, 828.69 308.58 C 820.47 318.79, 815.78 324.29, 807.56 333.60 C 799.34 342.90, 795.01 347.74, 787.59 355.11 C 780.17 362.48, 776.66 365.79, 770.46 370.45 C 764.27 375.11, 761.52 376.74, 756.60 378.42 C 751.68 380.10, 749.92 380.20, 745.88 378.84 C 741.84 377.49, 740.13 376.13, 736.41 371.64 C 732.68 367.16, 730.79 364.10, 727.25 356.44 C 723.72 348.77, 722.13 343.60, 718.73 333.31 C 715.33 323.01, 713.58 316.95, 710.26 304.97 C 706.93 292.98, 705.15 285.87, 702.12 273.37 C 699.09 260.88, 697.55 253.52, 695.12 242.51 C 692.68 231.50, 691.59 226.08, 689.97 218.32 C 688.35 210.56, 687.91 206.59, 687.03 203.73 C 686.14 200.88, 685.22 201.07, 685.56 204.04" style="stroke:#ffffff; fill:#ffffff;"/><path d="M 792.46,307.35 C 793.17 308.81, 794.23 310.17, 797.17 313.73 C 800.10 317.29, 802.19 319.83, 807.13 325.15 C 812.08 330.48, 815.39 333.99, 821.89 340.35 C 828.39 346.72, 832.37 350.69, 839.63 356.98 C 846.89 363.28, 850.94 366.57, 858.19 371.83 C 865.44 377.08, 869.11 379.52, 875.89 383.26 C 882.68 387.00, 886.06 388.57, 892.11 390.53 C 898.15 392.49, 901.15 393.09, 906.12 393.06 C 911.09 393.03, 913.31 392.51, 916.96 390.38 C 920.61 388.25, 922.11 386.39, 924.36 382.41 C 926.61 378.43, 927.32 375.72, 928.20 370.48 C 929.09 365.25, 928.88 362.00, 928.77 356.23 C 928.67 350.47, 928.22 346.95, 927.66 341.67 C 927.11 336.40, 926.85 333.50, 926.00 329.85 C 925.14 326.20, 924.43 324.62, 923.40 323.43 C 922.36 322.24, 921.24 322.36, 920.81 323.89 C 920.38 325.43, 920.20 327.35, 921.24 331.09 C 922.27 334.83, 923.50 337.78, 925.98 342.62 C 928.45 347.45, 930.20 350.47, 933.61 355.26 C 937.01 360.05, 939.00 362.79, 942.98 366.56 C 946.97 370.33, 949.30 371.99, 953.53 374.11 C 957.75 376.23, 959.98 376.95, 964.10 377.17 C 968.22 377.39, 970.39 376.92, 974.14 375.21 C 977.89 373.50, 979.67 372.06, 982.85 368.61 C 986.03 365.16, 987.59 362.59, 990.04 357.96 C 992.49 353.33, 993.37 349.64, 995.09 345.48 C 996.81 341.31, 997.46 339.05, 998.63 337.15 C 999.80 335.24, 999.55 335.14, 1000.93 335.97 C 1002.32 336.80, 1002.93 338.25, 1005.56 341.30 C 1008.18 344.36, 1010.27 347.12, 1014.04 351.24 C 1017.82 355.36, 1020.20 358.15, 1024.44 361.92 C 1028.67 365.70, 1030.99 367.53, 1035.23 370.12 C 1039.47 372.71, 1041.73 373.85, 1045.65 374.89 C 1049.58 375.93, 1051.44 376.12, 1054.85 375.31 C 1058.27 374.50, 1059.87 373.44, 1062.72 370.83 C 1065.56 368.21, 1066.87 366.15, 1069.09 362.22 C 1071.30 358.29, 1072.10 355.35, 1073.81 351.19 C 1075.51 347.02, 1076.31 344.41, 1077.61 341.39 C 1078.92 338.38, 1079.31 336.93, 1080.34 336.10 C 1081.37 335.26, 1081.25 335.69, 1082.76 337.23 C 1084.27 338.76, 1085.44 340.54, 1087.89 343.77 C 1090.33 347.01, 1092.04 349.55, 1094.98 353.40 C 1097.92 357.24, 1099.56 359.56, 1102.58 363.00 C 1105.60 366.45, 1107.12 368.26, 1110.08 370.62 C 1113.05 372.97, 1114.53 373.94, 1117.40 374.79 C 1120.28 375.63, 1121.67 375.72, 1124.47 374.83 C 1127.28 373.94, 1128.71 372.94, 1131.43 370.34 C 1134.15 367.73, 1135.65 365.46, 1138.06 361.80 C 1140.48 358.14, 1141.49 355.56, 1143.50 352.03 C 1145.52 348.50, 1146.53 346.48, 1148.15 344.14 C 1149.76 341.79, 1150.21 340.74, 1151.59 340.30 C 1152.97 339.86, 1153.16 340.57, 1155.05 341.93 C 1156.93 343.29, 1158.29 344.79, 1161.02 347.10 C 1163.75 349.41, 1165.42 351.07, 1168.70 353.49 C 1171.98 355.90, 1173.94 357.23, 1177.43 359.18 C 1180.92 361.13, 1182.66 362.19, 1186.15 363.23 C 1189.64 364.28, 1191.42 364.43, 1194.87 364.40 C 1198.32 364.37, 1200.03 364.13, 1203.40 363.08 C 1206.77 362.03, 1208.53 361.05, 1211.70 359.16 C 1214.87 357.28, 1216.40 355.75, 1219.24 353.66 C 1222.08 351.57, 1223.51 350.25, 1225.89 348.73 C 1228.27 347.20, 1228.96 346.41, 1231.15 346.03 C 1233.33 345.65, 1234.08 345.96, 1236.81 346.82 C 1239.54 347.69, 1241.15 348.72, 1244.81 350.36 C 1248.47 352.00, 1250.47 353.37, 1255.11 355.02 C 1259.74 356.68, 1262.50 357.68, 1268.00 358.65 C 1273.49 359.62, 1276.74 359.99, 1282.60 359.87 C 1288.45 359.75, 1291.56 359.42, 1297.27 358.07 C 1302.97 356.72, 1305.95 355.52, 1311.11 353.11 C 1316.27 350.71, 1319.06 349.15, 1323.06 346.04 C 1327.05 342.92, 1328.77 340.98, 1331.08 337.53 C 1333.39 334.07, 1334.37 332.04, 1334.61 328.77 C 1334.84 325.49, 1334.29 323.41, 1332.25 321.15 C 1330.20 318.89, 1328.18 317.98, 1324.40 317.49 C 1320.61 317.00, 1317.99 317.28, 1313.33 318.72 C 1308.68 320.15, 1305.64 321.66, 1301.13 324.68 C 1296.63 327.70, 1294.06 329.87, 1290.80 333.82 C 1287.55 337.77, 1286.08 340.32, 1284.85 344.42 C 1283.62 348.53, 1283.58 350.86, 1284.66 354.37 C 1285.74 357.87, 1287.31 359.57, 1290.25 361.95 C 1293.20 364.32, 1295.42 365.24, 1299.37 366.23 C 1303.33 367.21, 1305.78 367.31, 1310.04 366.86 C 1314.30 366.41, 1316.69 365.72, 1320.67 363.98 C 1324.65 362.24, 1326.61 360.68, 1329.94 358.15 C 1333.28 355.63, 1334.75 353.71, 1337.35 351.35 C 1339.96 349.00, 1340.87 347.56, 1342.95 346.38 C 1345.04 345.20, 1345.53 344.95, 1347.79 345.43 C 1350.04 345.92, 1351.23 346.88, 1354.23 348.82 C 1357.22 350.76, 1359.02 352.45, 1362.76 355.16 C 1366.51 357.86, 1368.90 359.62, 1372.97 362.32 C 1377.04 365.02, 1379.39 366.53, 1383.13 368.67 C 1386.86 370.81, 1388.66 371.96, 1391.65 373.01 C 1394.64 374.07, 1395.98 374.31, 1398.06 373.95 C 1400.15 373.60, 1400.99 372.96, 1402.08 371.25 C 1403.16 369.53, 1403.38 368.21, 1403.49 365.38 C 1403.59 362.55, 1403.07 360.58, 1402.58 357.11 C 1402.10 353.64, 1401.59 351.55, 1401.08 348.04 C 1400.56 344.54, 1400.02 342.58, 1400.02 339.57 C 1400.02 336.56, 1399.84 335.45, 1401.06 333.01 C 1402.29 330.57, 1403.07 329.61, 1406.15 327.36 C 1409.23 325.11, 1411.45 323.73, 1416.47 321.77 C 1421.48 319.80, 1424.76 318.94, 1431.23 317.51 C 1437.71 316.09, 1441.79 315.46, 1448.85 314.63 C 1455.92 313.81, 1459.87 313.46, 1466.56 313.37 C 1473.25 313.29, 1476.77 313.60, 1482.30 314.19 C 1487.83 314.78, 1490.37 315.50, 1494.20 316.33 C 1498.04 317.16, 1499.95 318.18, 1501.49 318.34 C 1503.02 318.50, 1503.25 317.95, 1501.88 317.15 C 1500.52 316.36, 1498.54 315.32, 1494.67 314.35 C 1490.79 313.38, 1488.12 312.83, 1482.49 312.29 C 1476.87 311.76, 1473.30 311.53, 1466.54 311.66 C 1459.77 311.78, 1455.80 312.13, 1448.66 312.92 C 1441.52 313.72, 1437.43 314.30, 1430.84 315.65 C 1424.24 317.00, 1420.92 317.77, 1415.68 319.68 C 1410.44 321.59, 1408.09 322.83, 1404.64 325.22 C 1401.19 327.60, 1400.00 328.76, 1398.43 331.61 C 1396.85 334.46, 1396.92 336.11, 1396.75 339.49 C 1396.58 342.86, 1397.19 344.87, 1397.59 348.49 C 1397.98 352.11, 1398.36 354.19, 1398.73 357.59 C 1399.10 360.99, 1399.21 362.95, 1399.44 365.47 C 1399.67 367.99, 1400.18 368.97, 1399.86 370.19 C 1399.54 371.41, 1399.26 371.61, 1397.84 371.59 C 1396.42 371.56, 1395.43 371.11, 1392.75 370.06 C 1390.07 369.00, 1388.11 368.28, 1384.45 366.30 C 1380.78 364.31, 1378.42 362.83, 1374.42 360.15 C 1370.41 357.47, 1368.12 355.68, 1364.42 352.90 C 1360.71 350.13, 1359.10 348.35, 1355.89 346.27 C 1352.68 344.18, 1351.24 343.00, 1348.37 342.48 C 1345.49 341.97, 1344.12 342.35, 1341.51 343.67 C 1338.90 345.00, 1337.96 346.66, 1335.31 349.12 C 1332.66 351.58, 1331.40 353.48, 1328.25 355.96 C 1325.11 358.44, 1323.29 359.89, 1319.59 361.52 C 1315.89 363.16, 1313.67 363.73, 1309.76 364.13 C 1305.85 364.52, 1303.61 364.35, 1300.05 363.48 C 1296.49 362.61, 1294.55 361.75, 1291.97 359.77 C 1289.38 357.79, 1288.10 356.51, 1287.14 353.58 C 1286.18 350.65, 1286.08 348.77, 1287.17 345.12 C 1288.27 341.47, 1289.55 339.00, 1292.61 335.32 C 1295.67 331.63, 1298.17 329.50, 1302.46 326.69 C 1306.76 323.87, 1309.78 322.50, 1314.09 321.24 C 1318.41 319.97, 1320.83 319.99, 1324.04 320.36 C 1327.26 320.73, 1328.60 321.45, 1330.15 323.08 C 1331.70 324.72, 1332.02 325.93, 1331.79 328.55 C 1331.56 331.17, 1331.03 333.01, 1329.01 336.17 C 1326.99 339.33, 1325.46 341.31, 1321.71 344.34 C 1317.96 347.37, 1315.24 348.95, 1310.26 351.31 C 1305.28 353.68, 1302.36 354.87, 1296.82 356.18 C 1291.28 357.49, 1288.25 357.80, 1282.57 357.86 C 1276.88 357.93, 1273.71 357.54, 1268.39 356.50 C 1263.08 355.47, 1260.46 354.43, 1255.99 352.67 C 1251.52 350.91, 1249.71 349.49, 1246.06 347.69 C 1242.42 345.90, 1240.86 344.63, 1237.78 343.69 C 1234.70 342.75, 1233.40 342.58, 1230.66 343.00 C 1227.91 343.42, 1226.75 344.18, 1224.07 345.78 C 1221.39 347.38, 1220.06 348.88, 1217.25 351.01 C 1214.45 353.14, 1213.02 354.63, 1210.06 356.45 C 1207.10 358.27, 1205.51 359.13, 1202.46 360.11 C 1199.42 361.10, 1197.92 361.30, 1194.83 361.36 C 1191.73 361.41, 1190.19 361.34, 1187.00 360.39 C 1183.82 359.44, 1182.17 358.49, 1178.90 356.60 C 1175.62 354.70, 1173.76 353.35, 1170.64 350.92 C 1167.51 348.49, 1166.05 346.79, 1163.27 344.44 C 1160.49 342.09, 1159.19 340.44, 1156.73 339.16 C 1154.26 337.89, 1153.19 337.46, 1150.95 338.07 C 1148.71 338.67, 1147.56 339.68, 1145.54 342.17 C 1143.51 344.66, 1142.84 346.93, 1140.84 350.52 C 1138.83 354.11, 1137.84 356.61, 1135.52 360.12 C 1133.20 363.63, 1131.63 365.70, 1129.23 368.08 C 1126.83 370.45, 1125.72 371.21, 1123.52 371.97 C 1121.33 372.74, 1120.60 372.63, 1118.26 371.91 C 1115.92 371.20, 1114.55 370.55, 1111.82 368.42 C 1109.08 366.28, 1107.49 364.60, 1104.59 361.25 C 1101.68 357.90, 1100.14 355.54, 1097.30 351.67 C 1094.46 347.79, 1092.95 345.19, 1090.39 341.86 C 1087.84 338.54, 1086.75 336.55, 1084.53 335.05 C 1082.30 333.55, 1081.22 333.35, 1079.27 334.35 C 1077.32 335.35, 1076.39 336.89, 1074.77 340.04 C 1073.14 343.20, 1072.77 345.96, 1071.15 350.13 C 1069.54 354.29, 1068.75 357.14, 1066.69 360.88 C 1064.63 364.62, 1063.36 366.47, 1060.86 368.84 C 1058.37 371.22, 1057.15 372.01, 1054.23 372.75 C 1051.31 373.49, 1049.83 373.45, 1046.26 372.54 C 1042.69 371.63, 1040.45 370.67, 1036.39 368.21 C 1032.33 365.75, 1030.05 363.97, 1025.96 360.23 C 1021.88 356.49, 1019.63 353.67, 1015.97 349.51 C 1012.31 345.35, 1010.49 342.52, 1007.65 339.44 C 1004.80 336.36, 1003.97 334.89, 1001.76 334.12 C 999.54 333.34, 998.41 333.51, 996.57 335.58 C 994.73 337.64, 994.29 340.19, 992.55 344.44 C 990.81 348.69, 990.15 352.32, 987.86 356.83 C 985.56 361.34, 984.02 363.75, 981.08 366.98 C 978.13 370.22, 976.49 371.43, 973.12 372.99 C 969.75 374.56, 967.94 374.98, 964.22 374.81 C 960.49 374.64, 958.46 374.10, 954.51 372.14 C 950.55 370.18, 948.25 368.66, 944.44 365.03 C 940.63 361.40, 938.64 358.71, 935.45 353.98 C 932.26 349.25, 930.68 346.17, 928.47 341.40 C 926.26 336.63, 925.58 333.63, 924.39 330.12 C 923.21 326.61, 923.04 325.05, 922.54 323.85 C 922.04 322.65, 921.76 322.81, 921.90 324.13 C 922.04 325.45, 922.53 326.89, 923.22 330.45 C 923.92 334.01, 924.70 336.78, 925.38 341.94 C 926.05 347.11, 926.48 350.64, 926.61 356.28 C 926.74 361.91, 926.86 365.11, 926.03 370.12 C 925.19 375.13, 924.45 377.64, 922.42 381.33 C 920.39 385.02, 919.15 386.59, 915.88 388.57 C 912.62 390.55, 910.75 391.12, 906.09 391.21 C 901.43 391.30, 898.49 390.87, 892.58 389.04 C 886.67 387.21, 883.27 385.72, 876.54 382.07 C 869.81 378.42, 866.14 376.01, 858.93 370.80 C 851.72 365.59, 847.68 362.31, 840.48 356.01 C 833.28 349.71, 829.33 345.72, 822.93 339.30 C 816.52 332.89, 813.28 329.33, 808.45 323.95 C 803.62 318.57, 801.74 315.89, 798.78 312.38 C 795.81 308.88, 794.89 307.43, 793.63 306.42 C 792.36 305.42, 791.75 305.89, 792.46 307.35" style="stroke:#ffffff; fill:#ffffff;"/></svg>