<svg xmlns="http://www.w3.org/2000/svg" id="canvas" viewBox="317.300 206.642 1034.029 224.578"><path d="M 321.69,320.82 C 322.94 320.17, 324.26 319.02, 326.81 316.44 C 329.35 313.86, 330.77 311.96, 334.44 307.93 C 338.10 303.90, 340.56 301.27, 345.12 296.28 C 349.68 291.29, 352.20 288.55, 357.24 282.98 C 362.27 277.42, 365.04 274.33, 370.29 268.47 C 375.54 262.62, 378.37 259.46, 383.49 253.72 C 388.60 247.98, 391.21 244.98, 395.86 239.76 C 400.51 234.54, 402.79 231.89, 406.74 227.61 C 410.70 223.33, 412.62 221.35, 415.61 218.34 C 418.61 215.33, 420.14 214.02, 421.73 212.58 C 423.32 211.13, 423.42 210.48, 423.55 211.11 C 423.68 211.74, 423.19 212.54, 422.37 215.71 C 421.56 218.89, 421.18 221.31, 419.48 226.97 C 417.79 232.64, 416.58 236.33, 413.89 244.03 C 411.20 251.74, 409.53 256.27, 406.03 265.50 C 402.54 274.73, 400.46 279.92, 396.42 290.18 C 392.37 300.45, 390.06 306.11, 385.82 316.82 C 381.58 327.54, 379.28 333.27, 375.20 343.76 C 371.11 354.25, 369.02 359.70, 365.40 369.27 C 361.78 378.83, 360.02 383.57, 357.08 391.59 C 354.14 399.61, 352.83 403.38, 350.69 409.38 C 348.54 415.38, 347.54 417.95, 346.35 421.60 C 345.17 425.26, 344.95 426.81, 344.76 427.66 C 344.57 428.52, 345.39 426.24, 345.41 425.89 C 345.44 425.54, 344.85 425.45, 344.87 425.89 C 344.89 426.33, 344.82 428.81, 345.52 428.09 C 346.22 427.37, 347.05 425.94, 348.37 422.30 C 349.69 418.65, 350.16 415.93, 352.13 409.87 C 354.10 403.81, 355.37 400.05, 358.22 392.00 C 361.08 383.96, 362.82 379.22, 366.40 369.64 C 369.98 360.07, 372.06 354.62, 376.13 344.13 C 380.21 333.64, 382.50 327.91, 386.76 317.20 C 391.02 306.49, 393.34 300.84, 397.43 290.59 C 401.52 280.34, 403.62 275.16, 407.21 265.95 C 410.81 256.75, 412.53 252.24, 415.41 244.58 C 418.29 236.92, 419.64 233.31, 421.61 227.66 C 423.57 222.01, 424.63 219.76, 425.23 216.32 C 425.82 212.88, 425.57 211.60, 424.58 210.46 C 423.60 209.32, 422.43 209.37, 420.31 210.62 C 418.18 211.88, 416.95 213.59, 413.97 216.75 C 410.99 219.91, 409.27 222.02, 405.42 226.41 C 401.56 230.81, 399.29 233.46, 394.68 238.72 C 390.08 243.99, 387.48 246.99, 382.38 252.74 C 377.28 258.49, 374.45 261.65, 369.19 267.48 C 363.92 273.31, 361.14 276.39, 356.05 281.89 C 350.96 287.39, 348.39 290.09, 343.72 294.98 C 339.06 299.87, 336.51 302.42, 332.74 306.34 C 328.96 310.27, 327.29 311.92, 324.86 314.59 C 322.42 317.27, 321.21 318.47, 320.57 319.71 C 319.94 320.96, 320.45 321.48, 321.69 320.82" style="stroke:#ffffff; fill:#ffffff;"/><path d="M 375.42,303.54 C 375.90 303.75, 376.07 303.59, 377.03 303.45 C 377.99 303.30, 378.43 303.15, 380.22 302.82 C 382.01 302.49, 383.07 302.26, 385.98 301.80 C 388.89 301.34, 390.74 301.06, 394.76 300.52 C 398.79 299.98, 401.18 299.75, 406.09 299.11 C 411.00 298.47, 413.79 298.13, 419.32 297.31 C 424.85 296.49, 427.88 296.05, 433.74 295.02 C 439.60 293.98, 442.78 293.34, 448.63 292.13 C 454.48 290.91, 457.50 290.22, 463.00 288.93 C 468.50 287.65, 471.26 286.94, 476.12 285.70 C 480.98 284.46, 483.30 283.80, 487.30 282.71 C 491.30 281.62, 493.11 281.21, 496.12 280.27 C 499.14 279.33, 500.49 278.88, 502.38 278.03 C 504.27 277.18, 505.01 276.64, 505.57 276.03 C 506.14 275.43, 505.99 275.09, 505.19 275.00 C 504.38 274.91, 503.54 275.12, 501.55 275.58 C 499.55 276.05, 498.19 276.39, 495.20 277.34 C 492.21 278.30, 490.53 279.09, 486.61 280.35 C 482.68 281.61, 480.39 282.31, 475.57 283.64 C 470.76 284.98, 468.02 285.70, 462.55 287.02 C 457.08 288.34, 454.07 289.04, 448.24 290.25 C 442.41 291.46, 439.25 292.09, 433.41 293.07 C 427.56 294.06, 424.54 294.47, 419.02 295.18 C 413.51 295.89, 410.72 296.18, 405.82 296.62 C 400.91 297.06, 398.55 297.21, 394.49 297.39 C 390.42 297.57, 388.54 297.27, 385.47 297.52 C 382.41 297.78, 381.11 298.03, 379.16 298.65 C 377.20 299.28, 376.59 299.90, 375.68 300.65 C 374.78 301.40, 374.68 301.82, 374.63 302.40 C 374.58 302.98, 374.94 303.33, 375.42 303.54" style="stroke:#ffffff; fill:#ffffff;"/><path d="M 442.79,312.08 C 441.79 313.06, 440.77 314.46, 439.18 317.69 C 437.59 320.92, 436.78 323.25, 434.84 328.22 C 432.89 333.20, 431.54 336.50, 429.45 342.56 C 427.37 348.62, 426.34 352.12, 424.41 358.51 C 422.47 364.90, 421.41 368.31, 419.78 374.50 C 418.16 380.69, 417.25 383.88, 416.29 389.46 C 415.34 395.04, 414.96 397.77, 415.01 402.40 C 415.06 407.03, 415.27 409.17, 416.54 412.60 C 417.81 416.02, 418.81 417.54, 421.35 419.53 C 423.89 421.52, 425.66 422.13, 429.24 422.57 C 432.82 423.02, 434.95 422.68, 439.25 421.76 C 443.55 420.84, 445.93 419.94, 450.76 417.96 C 455.59 415.99, 458.30 414.60, 463.39 411.89 C 468.49 409.19, 471.24 407.47, 476.24 404.42 C 481.24 401.38, 483.84 399.63, 488.39 396.67 C 492.93 393.72, 495.16 392.15, 498.97 389.64 C 502.79 387.13, 504.83 386.01, 507.46 384.12 C 510.09 382.23, 510.85 381.46, 512.12 380.19 C 513.39 378.92, 513.58 378.39, 513.81 377.79 C 514.03 377.18, 513.83 377.01, 513.23 377.15 C 512.62 377.29, 512.27 377.58, 510.78 378.49 C 509.28 379.40, 508.37 379.86, 505.74 381.70 C 503.12 383.54, 501.34 385.05, 497.64 387.70 C 493.94 390.35, 491.74 391.95, 487.25 394.95 C 482.76 397.95, 480.16 399.69, 475.19 402.70 C 470.23 405.72, 467.47 407.41, 462.41 410.02 C 457.35 412.64, 454.63 413.95, 449.89 415.78 C 445.15 417.60, 442.77 418.35, 438.71 419.13 C 434.65 419.91, 432.72 420.06, 429.60 419.68 C 426.47 419.31, 425.23 418.86, 423.09 417.26 C 420.95 415.67, 420.10 414.67, 418.92 411.69 C 417.74 408.71, 417.34 406.73, 417.19 402.35 C 417.04 397.97, 417.32 395.25, 418.18 389.77 C 419.04 384.29, 419.91 381.09, 421.50 374.94 C 423.10 368.80, 424.16 365.38, 426.14 359.04 C 428.11 352.70, 429.20 349.23, 431.38 343.24 C 433.57 337.26, 435.02 334.01, 437.07 329.13 C 439.13 324.25, 440.24 322.11, 441.66 318.85 C 443.08 315.58, 443.95 314.17, 444.18 312.81 C 444.40 311.46, 443.79 311.11, 442.79 312.08" style="stroke:#ffffff; fill:#ffffff;"/><path d="M 556.40,415.36 C 556.81 415.59, 557.50 415.22, 557.55 414.75 C 557.59 414.29, 557.04 413.26, 556.63 413.03 C 556.22 412.81, 555.53 413.18, 555.48 413.65 C 555.44 414.11, 555.98 415.14, 556.40 415.36" style="stroke:#ffffff; fill:#ffffff;"/><path d="M 725.30,266.95 C 724.85 267.88, 724.96 268.70, 724.50 271.58 C 724.03 274.46, 724.13 276.31, 722.98 281.36 C 721.83 286.41, 721.09 289.83, 718.74 296.84 C 716.40 303.85, 714.72 308.14, 711.27 316.43 C 707.81 324.72, 705.55 329.44, 701.48 338.29 C 697.41 347.15, 695.03 352.00, 690.93 360.69 C 686.82 369.38, 684.57 373.93, 680.96 381.76 C 677.35 389.59, 675.53 393.49, 672.88 399.85 C 670.24 406.20, 669.04 409.08, 667.74 413.52 C 666.44 417.96, 665.95 419.78, 666.39 422.06 C 666.84 424.34, 667.83 425.14, 669.95 424.90 C 672.07 424.67, 673.49 423.77, 677.00 420.87 C 680.50 417.98, 682.50 415.59, 687.46 410.42 C 692.43 405.26, 695.45 401.79, 701.81 395.06 C 708.18 388.32, 711.91 384.30, 719.29 376.73 C 726.67 369.15, 730.86 364.89, 738.73 357.18 C 746.61 349.48, 750.89 345.42, 758.68 338.18 C 766.48 330.95, 770.52 327.36, 777.71 321.01 C 784.90 314.66, 788.47 311.59, 794.64 306.46 C 800.81 301.32, 803.70 299.03, 808.56 295.31 C 813.42 291.60, 815.58 290.12, 818.94 287.89 C 822.31 285.67, 823.58 285.32, 825.39 284.18 C 827.20 283.04, 827.44 282.81, 827.99 282.20 C 828.54 281.59, 828.26 281.55, 828.14 281.13 C 828.01 280.70, 827.71 280.34, 827.37 280.08 C 827.03 279.82, 826.69 279.35, 826.43 279.84 C 826.16 280.33, 825.87 281.98, 826.05 282.53 C 826.22 283.08, 826.91 282.83, 827.29 282.60 C 827.68 282.36, 827.98 281.68, 827.98 281.35 C 827.97 281.01, 828.03 280.77, 827.26 280.91 C 826.49 281.04, 826.03 280.98, 824.12 282.02 C 822.21 283.07, 821.03 283.73, 817.72 286.14 C 814.42 288.55, 812.36 290.20, 807.58 294.07 C 802.80 297.94, 799.94 300.25, 793.82 305.47 C 787.69 310.69, 784.13 313.78, 776.96 320.17 C 769.79 326.55, 765.76 330.16, 757.96 337.41 C 750.17 344.66, 745.89 348.72, 737.99 356.42 C 730.08 364.12, 725.89 368.37, 718.45 375.90 C 711.01 383.44, 707.26 387.44, 700.79 394.07 C 694.32 400.71, 691.19 404.11, 686.12 409.09 C 681.04 414.07, 678.71 416.16, 675.40 418.96 C 672.08 421.77, 670.97 422.54, 669.54 423.12 C 668.11 423.70, 668.24 423.68, 668.26 421.87 C 668.28 420.05, 668.43 418.35, 669.64 414.06 C 670.84 409.77, 671.78 406.76, 674.28 400.41 C 676.77 394.06, 678.58 390.13, 682.13 382.29 C 685.68 374.45, 687.92 369.90, 692.02 361.21 C 696.12 352.51, 698.50 347.66, 702.61 338.82 C 706.72 329.97, 709.01 325.26, 712.57 316.99 C 716.14 308.71, 717.89 304.44, 720.44 297.43 C 722.98 290.42, 723.89 287.04, 725.30 281.95 C 726.72 276.85, 727.23 274.97, 727.52 271.97 C 727.80 268.97, 727.17 267.96, 726.73 266.95 C 726.29 265.95, 725.75 266.03, 725.30 266.95" style="stroke:#ffffff; fill:#ffffff;"/><path d="M 749.24,348.99 C 748.59 349.60, 747.95 350.37, 747.46 352.40 C 746.97 354.43, 746.75 355.91, 746.79 359.14 C 746.82 362.38, 747.16 364.53, 747.65 368.56 C 748.13 372.59, 748.56 374.96, 749.23 379.29 C 749.89 383.61, 750.27 385.94, 750.98 390.18 C 751.68 394.43, 751.89 396.63, 752.76 400.50 C 753.62 404.38, 753.93 406.31, 755.30 409.54 C 756.66 412.78, 757.44 414.42, 759.56 416.67 C 761.68 418.92, 763.00 419.92, 765.91 420.81 C 768.82 421.69, 770.57 421.79, 774.11 421.09 C 777.64 420.39, 779.53 419.55, 783.57 417.31 C 787.60 415.08, 789.80 413.51, 794.29 409.92 C 798.77 406.33, 801.26 403.99, 806.00 399.37 C 810.74 394.75, 813.37 391.84, 817.99 386.83 C 822.61 381.81, 825.07 378.93, 829.10 374.31 C 833.13 369.69, 835.12 367.27, 838.13 363.72 C 841.15 360.17, 842.86 358.49, 844.16 356.56 C 845.47 354.63, 845.25 353.78, 844.66 354.07 C 844.08 354.36, 842.80 355.30, 841.23 358.00 C 839.66 360.70, 838.75 363.15, 836.83 367.56 C 834.91 371.98, 833.48 375.05, 831.63 380.07 C 829.78 385.08, 828.69 387.97, 827.57 392.64 C 826.45 397.32, 825.96 399.64, 826.03 403.43 C 826.10 407.23, 826.38 409.01, 827.94 411.61 C 829.50 414.20, 830.88 415.41, 833.85 416.40 C 836.81 417.40, 838.81 417.33, 842.76 416.57 C 846.72 415.81, 848.97 414.89, 853.64 412.61 C 858.30 410.33, 860.94 408.68, 866.08 405.18 C 871.22 401.69, 874.14 399.33, 879.34 395.13 C 884.54 390.92, 887.36 388.32, 892.07 384.17 C 896.78 380.03, 899.58 377.50, 902.91 374.40 C 906.24 371.29, 907.67 369.86, 908.71 368.64 C 909.76 367.43, 909.11 367.18, 908.12 368.32 C 907.14 369.46, 905.82 371.08, 903.79 374.35 C 901.76 377.61, 900.13 380.38, 897.99 384.65 C 895.86 388.91, 894.45 391.62, 893.11 395.67 C 891.76 399.72, 891.03 401.80, 891.27 404.90 C 891.52 408.00, 892.27 409.53, 894.34 411.18 C 896.41 412.83, 898.10 413.36, 901.64 413.15 C 905.18 412.95, 907.37 412.12, 912.03 410.16 C 916.68 408.20, 919.42 406.62, 924.93 403.36 C 930.43 400.10, 933.63 397.87, 939.55 393.87 C 945.48 389.88, 948.78 387.38, 954.56 383.37 C 960.34 379.37, 963.47 377.08, 968.44 373.85 C 973.41 370.62, 975.92 369.13, 979.41 367.23 C 982.90 365.33, 984.44 364.71, 985.87 364.36 C 987.30 364.01, 987.11 364.10, 986.55 365.48 C 985.99 366.85, 984.89 368.23, 983.08 371.23 C 981.27 374.23, 979.93 376.60, 977.49 380.50 C 975.05 384.40, 973.31 386.99, 970.89 390.75 C 968.47 394.51, 966.84 396.40, 965.39 399.29 C 963.94 402.18, 963.40 403.64, 963.62 405.19 C 963.85 406.75, 964.61 407.39, 966.52 407.07 C 968.42 406.75, 969.84 405.85, 973.16 403.60 C 976.48 401.35, 978.56 399.32, 983.12 395.84 C 987.67 392.36, 990.59 390.00, 995.93 386.19 C 1001.27 382.38, 1004.47 380.10, 1009.81 376.78 C 1015.16 373.46, 1018.35 371.65, 1022.67 369.58 C 1026.99 367.50, 1029.08 366.93, 1031.40 366.40 C 1033.72 365.88, 1034.07 365.86, 1034.26 366.96 C 1034.45 368.05, 1033.67 369.19, 1032.34 371.88 C 1031.01 374.57, 1029.70 376.87, 1027.61 380.42 C 1025.52 383.96, 1023.80 386.25, 1021.90 389.59 C 1020.00 392.93, 1018.68 394.68, 1018.12 397.12 C 1017.55 399.55, 1017.75 400.84, 1019.07 401.76 C 1020.38 402.67, 1021.69 402.80, 1024.69 401.68 C 1027.70 400.55, 1029.64 398.91, 1034.08 396.12 C 1038.52 393.34, 1041.45 391.25, 1046.90 387.74 C 1052.36 384.23, 1055.74 381.93, 1061.36 378.57 C 1066.98 375.21, 1070.17 373.31, 1075.02 370.94 C 1079.87 368.58, 1082.37 367.72, 1085.63 366.75 C 1088.89 365.78, 1090.06 365.65, 1091.31 366.09 C 1092.57 366.53, 1092.27 367.05, 1091.92 368.95 C 1091.56 370.84, 1090.74 372.44, 1089.53 375.58 C 1088.32 378.71, 1087.26 380.95, 1085.87 384.61 C 1084.48 388.28, 1083.35 390.43, 1082.59 393.89 C 1081.82 397.35, 1081.37 399.26, 1082.05 401.91 C 1082.73 404.55, 1083.57 405.89, 1085.99 407.13 C 1088.41 408.36, 1090.19 408.54, 1094.15 408.10 C 1098.11 407.65, 1100.55 406.79, 1105.80 404.89 C 1111.05 403.00, 1114.21 401.51, 1120.40 398.63 C 1126.59 395.74, 1130.15 393.85, 1136.74 390.46 C 1143.34 387.07, 1147.01 385.03, 1153.39 381.69 C 1159.77 378.35, 1163.11 376.54, 1168.64 373.76 C 1174.17 370.98, 1176.86 369.68, 1181.04 367.79 C 1185.22 365.91, 1187.12 365.50, 1189.53 364.33 C 1191.94 363.17, 1192.52 362.66, 1193.07 361.98 C 1193.63 361.29, 1193.28 361.02, 1192.31 360.91 C 1191.34 360.80, 1190.27 360.74, 1188.21 361.44 C 1186.14 362.14, 1184.90 362.73, 1181.98 364.43 C 1179.05 366.13, 1177.27 367.38, 1173.59 369.92 C 1169.91 372.46, 1167.54 373.98, 1163.57 377.13 C 1159.59 380.28, 1157.40 382.17, 1153.72 385.68 C 1150.03 389.18, 1148.02 391.21, 1145.13 394.66 C 1142.24 398.11, 1140.76 399.84, 1139.29 402.93 C 1137.82 406.01, 1137.50 407.68, 1137.80 410.07 C 1138.10 412.46, 1138.83 413.64, 1140.78 414.87 C 1142.73 416.11, 1144.36 416.57, 1147.54 416.23 C 1150.72 415.89, 1152.69 415.02, 1156.69 413.17 C 1160.69 411.31, 1163.01 409.91, 1167.54 406.95 C 1172.08 404.00, 1174.71 402.10, 1179.38 398.40 C 1184.06 394.70, 1186.60 392.40, 1190.92 388.46 C 1195.24 384.52, 1197.82 382.04, 1200.98 378.71 C 1204.14 375.39, 1205.67 373.68, 1206.72 371.83 C 1207.77 369.99, 1207.26 369.27, 1206.24 369.48 C 1205.23 369.70, 1203.71 370.57, 1201.64 372.91 C 1199.58 375.25, 1198.00 377.60, 1195.92 381.18 C 1193.85 384.77, 1192.47 387.23, 1191.27 390.84 C 1190.08 394.45, 1189.52 396.39, 1189.95 399.23 C 1190.38 402.08, 1191.16 403.52, 1193.42 405.07 C 1195.69 406.62, 1197.45 407.04, 1201.30 406.98 C 1205.15 406.92, 1207.62 406.27, 1212.69 404.79 C 1217.76 403.32, 1220.77 402.10, 1226.65 399.61 C 1232.54 397.11, 1235.97 395.34, 1242.11 392.32 C 1248.26 389.29, 1251.72 387.30, 1257.38 384.48 C 1263.04 381.66, 1266.19 380.00, 1270.40 378.21 C 1274.61 376.43, 1276.53 375.88, 1278.42 375.57 C 1280.31 375.26, 1280.23 375.35, 1279.85 376.68 C 1279.47 378.01, 1278.42 379.37, 1276.52 382.23 C 1274.62 385.10, 1272.96 387.50, 1270.36 391.01 C 1267.76 394.53, 1265.75 396.74, 1263.52 399.82 C 1261.30 402.90, 1259.97 404.49, 1259.23 406.42 C 1258.49 408.35, 1258.75 409.29, 1259.84 409.48 C 1260.94 409.66, 1262.18 409.22, 1264.70 407.34 C 1267.22 405.46, 1268.80 403.39, 1272.44 400.07 C 1276.09 396.75, 1278.44 394.49, 1282.92 390.74 C 1287.41 386.99, 1290.06 384.78, 1294.88 381.32 C 1299.69 377.86, 1302.33 376.12, 1306.98 373.44 C 1311.62 370.76, 1313.93 369.64, 1318.10 367.92 C 1322.27 366.21, 1324.14 365.66, 1327.82 364.88 C 1331.49 364.09, 1333.42 364.22, 1336.49 364.02 C 1339.57 363.81, 1340.96 363.97, 1343.18 363.85 C 1345.41 363.72, 1346.71 363.73, 1347.61 363.38 C 1348.52 363.03, 1348.58 362.58, 1347.71 362.10 C 1346.84 361.62, 1345.55 361.22, 1343.26 360.98 C 1340.97 360.73, 1339.45 360.59, 1336.25 360.87 C 1333.04 361.15, 1331.02 361.38, 1327.22 362.39 C 1323.42 363.39, 1321.49 364.03, 1317.24 365.89 C 1312.98 367.75, 1310.66 368.92, 1305.95 371.68 C 1301.24 374.43, 1298.59 376.21, 1293.70 379.67 C 1288.80 383.12, 1286.11 385.32, 1281.48 388.96 C 1276.85 392.60, 1274.34 394.73, 1270.54 397.88 C 1266.73 401.03, 1264.65 402.56, 1262.45 404.71 C 1260.25 406.85, 1259.76 407.99, 1259.55 408.61 C 1259.34 409.22, 1260.04 409.13, 1261.39 407.80 C 1262.74 406.47, 1263.98 404.90, 1266.32 401.94 C 1268.67 398.99, 1270.49 396.63, 1273.10 393.02 C 1275.71 389.42, 1277.65 387.17, 1279.37 383.92 C 1281.10 380.67, 1281.93 378.86, 1281.72 376.77 C 1281.51 374.69, 1280.77 373.62, 1278.33 373.49 C 1275.89 373.37, 1273.89 374.29, 1269.53 376.15 C 1265.17 378.01, 1262.17 379.89, 1256.53 382.80 C 1250.89 385.70, 1247.44 387.69, 1241.31 390.68 C 1235.18 393.67, 1231.73 395.39, 1225.88 397.74 C 1220.03 400.09, 1216.97 401.18, 1212.05 402.44 C 1207.12 403.70, 1204.68 403.99, 1201.25 404.06 C 1197.82 404.13, 1196.57 403.83, 1194.91 402.81 C 1193.24 401.78, 1193.00 401.09, 1192.93 398.93 C 1192.86 396.78, 1193.28 395.19, 1194.55 392.03 C 1195.82 388.88, 1197.25 386.54, 1199.28 383.16 C 1201.31 379.78, 1203.16 377.73, 1204.70 375.13 C 1206.23 372.53, 1206.90 371.08, 1206.95 370.14 C 1207.01 369.20, 1206.54 369.05, 1204.98 370.41 C 1203.42 371.78, 1202.24 373.68, 1199.14 376.98 C 1196.04 380.28, 1193.70 382.96, 1189.49 386.91 C 1185.28 390.87, 1182.73 393.15, 1178.09 396.75 C 1173.45 400.36, 1170.79 402.19, 1166.27 404.93 C 1161.76 407.68, 1159.36 408.92, 1155.52 410.47 C 1151.68 412.03, 1149.78 412.28, 1147.08 412.72 C 1144.37 413.15, 1143.34 413.21, 1142.00 412.65 C 1140.65 412.08, 1140.34 411.56, 1140.34 409.88 C 1140.33 408.19, 1140.60 406.94, 1141.95 404.22 C 1143.30 401.49, 1144.41 399.62, 1147.09 396.26 C 1149.77 392.90, 1151.76 390.83, 1155.36 387.41 C 1158.97 383.98, 1161.14 382.12, 1165.11 379.12 C 1169.07 376.13, 1171.43 374.65, 1175.19 372.43 C 1178.95 370.22, 1180.95 369.50, 1183.91 368.05 C 1186.87 366.61, 1188.15 366.33, 1189.98 365.20 C 1191.81 364.08, 1192.53 363.28, 1193.07 362.41 C 1193.61 361.53, 1193.60 360.97, 1192.66 360.82 C 1191.72 360.67, 1190.86 360.65, 1188.35 361.66 C 1185.84 362.66, 1184.20 363.75, 1180.10 365.85 C 1176.00 367.96, 1173.33 369.31, 1167.84 372.19 C 1162.34 375.07, 1159.00 376.89, 1152.63 380.25 C 1146.26 383.61, 1142.59 385.65, 1135.99 388.98 C 1129.39 392.31, 1125.81 394.16, 1119.62 396.91 C 1113.43 399.65, 1110.20 401.02, 1105.04 402.69 C 1099.89 404.36, 1097.41 404.86, 1093.83 405.26 C 1090.26 405.65, 1088.96 405.45, 1087.17 404.66 C 1085.39 403.88, 1085.16 403.32, 1084.91 401.33 C 1084.66 399.35, 1085.08 397.81, 1085.93 394.72 C 1086.79 391.63, 1087.78 389.48, 1089.19 385.89 C 1090.60 382.31, 1091.88 380.16, 1092.97 376.79 C 1094.05 373.42, 1094.81 371.54, 1094.62 369.06 C 1094.44 366.57, 1093.99 365.32, 1092.05 364.38 C 1090.12 363.44, 1088.55 363.42, 1084.96 364.36 C 1081.37 365.31, 1079.02 366.59, 1074.10 369.10 C 1069.18 371.61, 1066.04 373.55, 1060.37 376.91 C 1054.70 380.28, 1051.30 382.54, 1045.76 385.93 C 1040.23 389.31, 1037.19 391.29, 1032.71 393.85 C 1028.24 396.42, 1025.99 397.39, 1023.40 398.74 C 1020.80 400.09, 1020.22 400.71, 1019.73 400.59 C 1019.23 400.48, 1019.87 400.01, 1020.91 398.17 C 1021.96 396.33, 1023.01 394.58, 1024.95 391.38 C 1026.89 388.18, 1028.53 385.82, 1030.63 382.17 C 1032.73 378.52, 1034.41 376.30, 1035.45 373.14 C 1036.50 369.98, 1036.74 368.21, 1035.86 366.37 C 1034.97 364.54, 1033.87 363.72, 1031.04 363.97 C 1028.20 364.21, 1026.15 365.36, 1021.69 367.59 C 1017.24 369.82, 1014.17 371.74, 1008.78 375.13 C 1003.40 378.52, 1000.20 380.80, 994.77 384.54 C 989.35 388.28, 986.32 390.53, 981.64 393.83 C 976.96 397.12, 974.56 398.78, 971.38 401.02 C 968.20 403.26, 966.98 404.16, 965.74 405.03 C 964.50 405.90, 964.67 406.20, 965.18 405.38 C 965.70 404.56, 966.66 403.54, 968.30 400.93 C 969.94 398.32, 971.02 396.09, 973.39 392.34 C 975.76 388.60, 977.63 386.09, 980.16 382.20 C 982.68 378.30, 984.34 376.15, 986.02 372.87 C 987.71 369.58, 988.63 367.84, 988.58 365.77 C 988.53 363.71, 987.81 362.68, 985.75 362.56 C 983.70 362.44, 981.97 363.23, 978.30 365.18 C 974.63 367.12, 972.35 368.94, 967.41 372.30 C 962.46 375.65, 959.35 377.95, 953.59 381.97 C 947.82 385.99, 944.51 388.48, 938.57 392.41 C 932.64 396.33, 929.41 398.51, 923.91 401.60 C 918.42 404.69, 915.59 406.12, 911.10 407.85 C 906.60 409.57, 904.47 409.93, 901.43 410.21 C 898.38 410.48, 897.29 410.31, 895.87 409.23 C 894.45 408.14, 894.30 407.29, 894.31 404.77 C 894.32 402.25, 894.59 400.36, 895.92 396.64 C 897.25 392.92, 898.79 390.29, 900.96 386.17 C 903.12 382.04, 904.97 379.45, 906.73 376.01 C 908.49 372.58, 909.56 370.74, 909.76 368.99 C 909.96 367.24, 909.42 366.53, 907.73 367.26 C 906.03 367.99, 904.68 369.55, 901.29 372.65 C 897.90 375.74, 895.41 378.53, 890.78 382.73 C 886.16 386.94, 883.34 389.53, 878.18 393.68 C 873.01 397.83, 870.06 400.14, 864.95 403.49 C 859.84 406.84, 857.16 408.38, 852.62 410.44 C 848.08 412.50, 845.82 413.17, 842.26 413.78 C 838.69 414.38, 837.17 414.20, 834.79 413.47 C 832.42 412.75, 831.60 412.16, 830.38 410.14 C 829.16 408.12, 828.77 406.76, 828.68 403.38 C 828.60 399.99, 828.89 397.69, 829.96 393.22 C 831.04 388.74, 832.11 385.87, 834.04 380.99 C 835.97 376.11, 837.58 373.13, 839.62 368.83 C 841.66 364.52, 843.08 362.37, 844.23 359.45 C 845.38 356.52, 845.74 355.09, 845.36 354.19 C 844.98 353.30, 844.14 353.35, 842.35 354.97 C 840.55 356.58, 839.31 358.64, 836.38 362.27 C 833.44 365.89, 831.62 368.42, 827.68 373.09 C 823.74 377.76, 821.28 380.63, 816.68 385.62 C 812.08 390.60, 809.44 393.49, 804.69 398.01 C 799.94 402.53, 797.42 404.81, 792.95 408.21 C 788.49 411.61, 786.23 413.04, 782.35 415.02 C 778.46 416.99, 776.64 417.55, 773.55 418.08 C 770.45 418.62, 769.19 418.42, 766.88 417.69 C 764.56 416.96, 763.71 416.29, 761.95 414.42 C 760.19 412.55, 759.37 411.25, 758.07 408.34 C 756.78 405.43, 756.35 403.60, 755.46 399.88 C 754.58 396.16, 754.32 393.94, 753.63 389.75 C 752.95 385.55, 752.58 383.19, 752.04 378.89 C 751.50 374.60, 751.19 372.22, 750.94 368.26 C 750.70 364.30, 750.85 362.20, 750.84 359.11 C 750.82 356.01, 750.88 354.75, 750.85 352.79 C 750.83 350.84, 751.03 350.10, 750.71 349.34 C 750.39 348.58, 749.89 348.38, 749.24 348.99" style="stroke:#ffffff; fill:#ffffff;"/></svg>